M48
METRIC,0000.00
T01C0.3
T02C0.486
T03C0.7
T04C0.813
T05C0.9
T06C1.2
%
T01
X+007380Y+004280
X+006970Y+005050
X+006280Y+004350
X+005740Y+003630
X+005440Y+003960
X+005360Y+004060
X+005360Y+004210
X+004580Y+004180
X+004470Y+004150
X+004370Y+004110
X+004220Y+004280
X+004170Y+003670
X+004090Y+003580
X+004510Y+003710
X+003610Y+004190
X+003390Y+003480
X+003390Y+003240
X+003330Y+003050
X+003050Y+002710
X+002860Y+002930
X+002850Y+003040
X+002680Y+002560
X+002690Y+002450
X+002410Y+002180
X+002380Y+002060
X+002280Y+001990
X+002190Y+001920
X+002100Y+001850
X+002180Y+001780
X+002340Y+001700
X+002770Y+001860
X+002959Y+001920
X+003330Y+002490
X+003470Y+002500
X+003900Y+002467
X+004470Y+002510
X+005590Y+003100
X+005790Y+002940
X+006020Y+003010
X+006290Y+003050
X+002210Y+002210
X+001620Y+002940
X+001890Y+003650
X+001890Y+003870
T02
X+007200Y+004070
X+006570Y+003710
X+006580Y+003430
X+006860Y+003060
X+006680Y+002500
X+007330Y+001900
X+006170Y+003710
X+004510Y+003110
X+004310Y+003310
X+003920Y+002840
X+003720Y+002630
X+004180Y+002620
X+003040Y+004040
X+001970Y+003050
X+001780Y+003050
X+001210Y+002460
X+001160Y+001930
X+002290Y+002360
T03
X+004120Y+003040
T04
X+002330Y+002820
X+002330Y+003303
T05
X+001260Y+003810
X+001260Y+004064
X+001260Y+004318
X+001257Y+004708
X+001257Y+004962
X+001511Y+004962
X+001511Y+004708
X+001765Y+004708
X+001765Y+004962
X+002019Y+004962
X+002019Y+004708
X+002273Y+004708
X+002273Y+004962
X+002527Y+004962
X+002527Y+004708
X+002781Y+004708
X+002781Y+004962
X+003035Y+004962
X+003035Y+004708
X+003289Y+004708
X+003289Y+004962
X+003543Y+004962
X+003543Y+004708
X+003797Y+004708
X+003797Y+004962
X+004051Y+004962
X+004051Y+004708
X+004305Y+004708
X+004305Y+004962
X+004559Y+004962
X+004559Y+004708
X+004813Y+004708
X+004813Y+004962
X+005067Y+004962
X+005067Y+004708
X+005321Y+004708
X+005321Y+004962
X+005575Y+004962
X+005575Y+004708
X+005829Y+004708
X+005829Y+004962
X+006083Y+004962
X+006337Y+004962
X+006337Y+004708
X+006083Y+004708
X+006591Y+004708
X+006845Y+004708
X+006845Y+004962
X+007099Y+004962
X+007099Y+004708
X+007353Y+004708
X+007353Y+004962
X+006591Y+004962
X+007000Y+002330
X+007100Y+001500
X+007354Y+001500
X+007354Y+001246
X+007100Y+001246
X+006846Y+001246
X+006846Y+001500
X+006592Y+001500
X+006592Y+001246
X+006338Y+001246
X+006338Y+001500
X+006084Y+001500
X+005830Y+001500
X+005576Y+001500
X+005576Y+001246
X+005830Y+001246
X+006084Y+001246
X+005322Y+001246
X+005068Y+001246
X+004814Y+001246
X+004814Y+001500
X+005068Y+001500
X+005322Y+001500
X+004560Y+001500
X+004306Y+001500
X+004052Y+001500
X+003798Y+001500
X+003798Y+001246
X+004052Y+001246
X+004306Y+001246
X+004560Y+001246
X+003544Y+001246
X+003290Y+001246
X+003290Y+001500
X+003036Y+001500
X+003036Y+001246
X+002782Y+001246
X+002782Y+001500
X+002528Y+001500
X+002274Y+001500
X+002274Y+001246
X+002528Y+001246
X+002020Y+001246
X+002020Y+001500
X+001766Y+001500
X+001512Y+001500
X+001512Y+001246
X+001766Y+001246
X+001258Y+001246
X+001258Y+001500
X+003544Y+001500
T06
X+007000Y+002580
X+007000Y+002076
T00
M30
