G04 DipTrace 3.2.0.1*
G04 Верхняямаска.gbr*
%MOMM*%
G04 #@! TF.FileFunction,Soldermask,Top*
G04 #@! TF.Part,Single*
%AMOUTLINE1*
4,1,4,
-1.13135,-0.0707,
0.0707,1.13135,
1.13135,0.0707,
-0.0707,-1.13135,
-1.13135,-0.0707,
0*%
%AMOUTLINE4*
4,1,5,
0.39499,0.45357,
0.98995,-0.14144,
0.14144,-0.98995,
-0.45357,-0.39499,
-0.45357,0.45357,
0.39499,0.45357,
0*%
%AMOUTLINE7*
4,1,5,
0.38283,-1.23135,
-0.63639,-0.21213,
0.21213,0.63639,
1.23135,-0.38283,
0.38283,-0.38283,
0.38283,-1.23135,
0*%
%AMOUTLINE10*
4,1,5,
0.6,0.04142,
0.6,-0.8,
-0.6,-0.8,
-0.6,0.04142,
0.0,0.64142,
0.6,0.04142,
0*%
%AMOUTLINE13*
4,1,5,
-0.6,-1.14142,
-0.6,0.3,
0.6,0.3,
0.6,-1.14142,
0.0,-0.54142,
-0.6,-1.14142,
0*%
%ADD26R,1.6X1.8*%
%ADD64R,2.1X2.4*%
%ADD66C,1.4192*%
%ADD72R,0.8X2.2*%
%ADD74R,0.5X1.8*%
%ADD76R,1.8X0.5*%
%ADD85C,2.7*%
%ADD87R,2.1X2.0*%
%ADD89R,1.5X2.5*%
%ADD92R,1.55X0.6*%
%ADD94C,1.7*%
%ADD96R,1.7X1.7*%
%ADD104R,1.5X1.7*%
%ADD106R,1.7X1.5*%
%ADD108R,2.85X1.6*%
%ADD116OUTLINE1*%
%ADD119OUTLINE4*%
%ADD122OUTLINE7*%
%ADD125OUTLINE10*%
%ADD128OUTLINE13*%
%FSLAX35Y35*%
G04*
G71*
G90*
G75*
G01*
G04 TopMask*
%LPD*%
D108*
X2000000Y2170000D3*
X1340000D3*
D116*
X3050000Y4040000D3*
X3184353Y3905647D3*
D106*
X4810000Y4030000D3*
Y3840000D3*
X6450000Y3220000D3*
Y3030000D3*
D104*
X4880000Y2250000D3*
X4690000D3*
D106*
X7430000Y4090000D3*
Y4280000D3*
X7460000Y2380000D3*
Y2190000D3*
D104*
X1330000Y1750000D3*
X1520000D3*
D96*
X1260000Y3810000D3*
D94*
Y4064000D3*
Y4318000D3*
D92*
X7040000Y3270000D3*
Y3335000D3*
Y3400000D3*
Y3465000D3*
Y3530000D3*
D26*
X7062500Y3080000D3*
Y3720000D3*
D89*
X7307500Y3025000D3*
Y3775000D3*
D87*
Y3285000D3*
Y3515000D3*
D85*
X7000000Y2580000D3*
Y2076000D3*
D94*
Y2330000D3*
X6337000Y4708000D3*
X1257000D3*
X6337000Y4962000D3*
X6591000Y4708000D3*
Y4962000D3*
X6845000Y4708000D3*
Y4962000D3*
X7099000Y4708000D3*
Y4962000D3*
X1257000D3*
X1511000Y4708000D3*
Y4962000D3*
X1765000Y4708000D3*
Y4962000D3*
X2019000Y4708000D3*
Y4962000D3*
X2273000Y4708000D3*
Y4962000D3*
X2527000Y4708000D3*
Y4962000D3*
X2781000Y4708000D3*
Y4962000D3*
X3035000Y4708000D3*
Y4962000D3*
X3289000Y4708000D3*
Y4962000D3*
X3543000Y4708000D3*
Y4962000D3*
X3797000Y4708000D3*
Y4962000D3*
X4051000Y4708000D3*
Y4962000D3*
X4305000Y4708000D3*
Y4962000D3*
X4559000Y4708000D3*
Y4962000D3*
X4813000Y4708000D3*
Y4962000D3*
X5067000Y4708000D3*
Y4962000D3*
X5321000Y4708000D3*
Y4962000D3*
X5575000Y4708000D3*
Y4962000D3*
X5829000Y4708000D3*
Y4962000D3*
X6083000Y4708000D3*
Y4962000D3*
X7353000Y4708000D3*
Y4962000D3*
X7354000Y1500000D3*
X7100000D3*
X7354000Y1246000D3*
X1258000D3*
X7100000D3*
X6846000Y1500000D3*
Y1246000D3*
X6592000Y1500000D3*
Y1246000D3*
X6338000Y1500000D3*
Y1246000D3*
X1258000Y1500000D3*
X1512000Y1246000D3*
Y1500000D3*
X1766000Y1246000D3*
Y1500000D3*
X2020000Y1246000D3*
Y1500000D3*
X2274000Y1246000D3*
Y1500000D3*
X2528000Y1246000D3*
Y1500000D3*
X2782000Y1246000D3*
Y1500000D3*
X3036000Y1246000D3*
Y1500000D3*
X3290000Y1246000D3*
Y1500000D3*
X3544000Y1246000D3*
Y1500000D3*
X3798000Y1246000D3*
Y1500000D3*
X4052000Y1246000D3*
Y1500000D3*
X4306000Y1246000D3*
Y1500000D3*
X4560000Y1246000D3*
Y1500000D3*
X4814000Y1246000D3*
Y1500000D3*
X5068000Y1246000D3*
Y1500000D3*
X5322000Y1246000D3*
Y1500000D3*
X5576000Y1246000D3*
Y1500000D3*
X5830000Y1246000D3*
Y1500000D3*
X6084000Y1246000D3*
Y1500000D3*
D119*
X1690000Y4230000D3*
D122*
X1605147Y4314853D3*
D119*
X1700000Y4030000D3*
D122*
X1615147Y4114853D3*
D125*
X6560000Y2800000D3*
D128*
Y2920000D3*
D104*
X6580000Y3650000D3*
X6770000D3*
X6580000Y3470000D3*
X6770000D3*
D106*
X2690000Y3050000D3*
Y2860000D3*
D104*
X6440000Y2630000D3*
X6250000D3*
X6440000Y2450000D3*
X6250000D3*
X1880000Y1750000D3*
X1690000D3*
D76*
X3180000Y3710000D3*
Y3660000D3*
Y3610000D3*
Y3560000D3*
Y3510000D3*
Y3460000D3*
Y3410000D3*
Y3360000D3*
Y3310000D3*
Y3260000D3*
Y3210000D3*
Y3160000D3*
Y3110000D3*
Y3060000D3*
Y3010000D3*
Y2960000D3*
Y2910000D3*
Y2860000D3*
Y2810000D3*
Y2760000D3*
Y2710000D3*
Y2660000D3*
Y2610000D3*
Y2560000D3*
Y2510000D3*
D74*
X3350000Y2340000D3*
X3400000D3*
X3450000D3*
X3500000D3*
X3550000D3*
X3600000D3*
X3650000D3*
X3700000D3*
X3750000D3*
X3800000D3*
X3850000D3*
X3900000D3*
X3950000D3*
X4000000D3*
X4050000D3*
X4100000D3*
X4150000D3*
X4200000D3*
X4250000D3*
X4300000D3*
X4350000D3*
X4400000D3*
X4450000D3*
X4500000D3*
X4550000D3*
D76*
X4720000Y2510000D3*
Y2560000D3*
Y2610000D3*
Y2660000D3*
Y2710000D3*
Y2760000D3*
Y2810000D3*
Y2860000D3*
Y2910000D3*
Y2960000D3*
Y3010000D3*
Y3060000D3*
Y3110000D3*
Y3160000D3*
Y3210000D3*
Y3260000D3*
Y3310000D3*
Y3360000D3*
Y3410000D3*
Y3460000D3*
Y3510000D3*
Y3560000D3*
Y3610000D3*
Y3660000D3*
Y3710000D3*
D74*
X4550000Y3880000D3*
X4500000D3*
X4450000D3*
X4400000D3*
X4350000D3*
X4300000D3*
X4250000D3*
X4200000D3*
X4150000D3*
X4100000D3*
X4050000D3*
X4000000D3*
X3950000D3*
X3900000D3*
X3850000D3*
X3800000D3*
X3750000D3*
X3700000D3*
X3650000D3*
X3600000D3*
X3550000D3*
X3500000D3*
X3450000D3*
X3400000D3*
X3350000D3*
D72*
X6280000Y3390000D3*
X6153000D3*
X6026000D3*
X5899000D3*
Y2850000D3*
X6026000D3*
X6153000D3*
X6280000D3*
D66*
X2330000Y2820000D3*
Y3302600D3*
D64*
X1260000Y3360000D3*
X1582493Y3361073D3*
Y2721073D3*
X1260000Y2720000D3*
M02*
