G04 DipTrace 3.2.0.1*
G04 Нижняямаска.gbr*
%MOMM*%
G04 #@! TF.FileFunction,Soldermask,Bot*
G04 #@! TF.Part,Single*
%AMOUTLINE16*
4,1,5,
-0.6,0.04142,
-0.6,-0.8,
0.6,-0.8,
0.6,0.04142,
0.0,0.64142,
-0.6,0.04142,
0*%
%AMOUTLINE19*
4,1,5,
0.6,-1.14142,
0.6,0.3,
-0.6,0.3,
-0.6,-1.14142,
0.0,-0.54142,
0.6,-1.14142,
0*%
%AMOUTLINE22*
4,1,5,
-0.04142,-0.6,
0.8,-0.6,
0.8,0.6,
-0.04142,0.6,
-0.64142,0.0,
-0.04142,-0.6,
0*%
%AMOUTLINE25*
4,1,5,
1.14142,0.6,
-0.3,0.6,
-0.3,-0.6,
1.14142,-0.6,
0.54142,0.0,
1.14142,0.6,
0*%
%AMOUTLINE28*
4,1,5,
0.04142,0.6,
-0.8,0.6,
-0.8,-0.6,
0.04142,-0.6,
0.64142,0.0,
0.04142,0.6,
0*%
%AMOUTLINE31*
4,1,5,
-1.14142,-0.6,
0.3,-0.6,
0.3,0.6,
-1.14142,0.6,
-0.54142,0.0,
-1.14142,-0.6,
0*%
%ADD41R,2.0X1.6*%
%ADD66C,1.4192*%
%ADD68R,3.45X2.35*%
%ADD70R,1.15X2.35*%
%ADD78R,1.4X1.8*%
%ADD80R,2.2X2.2*%
%ADD82R,2.2X1.8*%
%ADD83R,1.88X1.0*%
%ADD85C,2.7*%
%ADD94C,1.7*%
%ADD96R,1.7X1.7*%
%ADD99R,1.8X2.9*%
%ADD101R,2.0X1.8*%
%ADD103R,1.8X2.0*%
%ADD104R,1.5X1.7*%
%ADD106R,1.7X1.5*%
%ADD131OUTLINE16*%
%ADD134OUTLINE19*%
%ADD137OUTLINE22*%
%ADD140OUTLINE25*%
%ADD143OUTLINE28*%
%ADD146OUTLINE31*%
%FSLAX35Y35*%
G04*
G71*
G90*
G75*
G01*
G04 BotMask*
%LPD*%
D106*
X4350000Y3740000D3*
Y3930000D3*
D104*
X3360000Y3590000D3*
X3170000D3*
X3360000Y3350000D3*
X3170000D3*
D106*
X1970000Y3360000D3*
Y3170000D3*
X1780000D3*
Y3360000D3*
D104*
X3360000Y3110000D3*
X3170000D3*
D106*
X1970000Y2940000D3*
Y2750000D3*
X1780000Y2940000D3*
Y2750000D3*
D104*
X3360000Y2850000D3*
X3170000D3*
D103*
X5120000Y2690000D3*
X4840000D3*
D104*
X3360000Y2680000D3*
X3170000D3*
X3330000Y2390000D3*
X3140000D3*
X1700000D3*
X1890000D3*
D106*
X4410000Y2370000D3*
Y2180000D3*
X3600000Y2370000D3*
Y2180000D3*
D101*
X6410000Y2060000D3*
Y2340000D3*
X6200000Y2060000D3*
Y2340000D3*
D99*
X3350000Y2150000D3*
X3070000D3*
D101*
X5230000Y1920000D3*
Y2200000D3*
X5010000Y1920000D3*
Y2200000D3*
D41*
X6680000Y2370000D3*
Y2030000D3*
D96*
X1260000Y3810000D3*
D94*
Y4064000D3*
Y4318000D3*
D85*
X7000000Y2580000D3*
Y2076000D3*
D94*
Y2330000D3*
X6337000Y4708000D3*
X1257000D3*
X6337000Y4962000D3*
X6591000Y4708000D3*
Y4962000D3*
X6845000Y4708000D3*
Y4962000D3*
X7099000Y4708000D3*
Y4962000D3*
X1257000D3*
X1511000Y4708000D3*
Y4962000D3*
X1765000Y4708000D3*
Y4962000D3*
X2019000Y4708000D3*
Y4962000D3*
X2273000Y4708000D3*
Y4962000D3*
X2527000Y4708000D3*
Y4962000D3*
X2781000Y4708000D3*
Y4962000D3*
X3035000Y4708000D3*
Y4962000D3*
X3289000Y4708000D3*
Y4962000D3*
X3543000Y4708000D3*
Y4962000D3*
X3797000Y4708000D3*
Y4962000D3*
X4051000Y4708000D3*
Y4962000D3*
X4305000Y4708000D3*
Y4962000D3*
X4559000Y4708000D3*
Y4962000D3*
X4813000Y4708000D3*
Y4962000D3*
X5067000Y4708000D3*
Y4962000D3*
X5321000Y4708000D3*
Y4962000D3*
X5575000Y4708000D3*
Y4962000D3*
X5829000Y4708000D3*
Y4962000D3*
X6083000Y4708000D3*
Y4962000D3*
X7353000Y4708000D3*
Y4962000D3*
X7354000Y1500000D3*
X7100000D3*
X7354000Y1246000D3*
X1258000D3*
X7100000D3*
X6846000Y1500000D3*
Y1246000D3*
X6592000Y1500000D3*
Y1246000D3*
X6338000Y1500000D3*
Y1246000D3*
X1258000Y1500000D3*
X1512000Y1246000D3*
Y1500000D3*
X1766000Y1246000D3*
Y1500000D3*
X2020000Y1246000D3*
Y1500000D3*
X2274000Y1246000D3*
Y1500000D3*
X2528000Y1246000D3*
Y1500000D3*
X2782000Y1246000D3*
Y1500000D3*
X3036000Y1246000D3*
Y1500000D3*
X3290000Y1246000D3*
Y1500000D3*
X3544000Y1246000D3*
Y1500000D3*
X3798000Y1246000D3*
Y1500000D3*
X4052000Y1246000D3*
Y1500000D3*
X4306000Y1246000D3*
Y1500000D3*
X4560000Y1246000D3*
Y1500000D3*
X4814000Y1246000D3*
Y1500000D3*
X5068000Y1246000D3*
Y1500000D3*
X5322000Y1246000D3*
Y1500000D3*
X5576000Y1246000D3*
Y1500000D3*
X5830000Y1246000D3*
Y1500000D3*
X6084000Y1246000D3*
Y1500000D3*
D83*
X5430000Y4180000D3*
Y3300433D3*
Y3410433D3*
Y3520467D3*
Y3630433D3*
Y3740433D3*
Y3850433D3*
Y3960433D3*
Y4070467D3*
D82*
X6566313Y4362000D3*
X5566313D3*
X6566313Y2702000D3*
D80*
X5566313Y2792000D3*
D131*
X3150000Y4320000D3*
D134*
Y4440000D3*
D137*
X4790000Y1950000D3*
D140*
X4670000D3*
D137*
X4790000Y1850000D3*
D140*
X4670000D3*
D143*
X4110000Y2020000D3*
D146*
X4230000D3*
D78*
X3920000Y1900000D3*
X3620000D3*
D106*
X7320000Y4520000D3*
Y4330000D3*
X2790000Y4510000D3*
Y4320000D3*
X2530000Y4510000D3*
Y4320000D3*
X2270000Y4510000D3*
Y4320000D3*
X2020000Y4510000D3*
Y4320000D3*
X1770000Y4510000D3*
Y4320000D3*
X1520000Y4510000D3*
Y4320000D3*
D104*
X3300000D3*
X3490000D3*
X3300000Y4150000D3*
X3490000D3*
D106*
X2810000Y3560000D3*
Y3370000D3*
X4065000Y2178000D3*
Y2368000D3*
X3892000Y2177000D3*
Y2367000D3*
D104*
X3350000Y1900000D3*
X3160000D3*
D103*
X7140000Y1820000D3*
X6860000D3*
D70*
X5470000Y2460000D3*
X5700000D3*
X5930000D3*
D68*
X5700000Y1880000D3*
D66*
X2330000Y2820000D3*
Y3302600D3*
M02*
