G04 DipTrace 3.2.0.1*
G04 Нижний.gbr*
%MOMM*%
G04 #@! TF.FileFunction,Copper,L2,Bot*
G04 #@! TF.Part,Single*
%AMOUTLINE15*
4,1,5,
-0.5,0.0,
-0.5,-0.7,
0.5,-0.7,
0.5,0.0,
0.0,0.5,
-0.5,0.0,
0*%
%AMOUTLINE18*
4,1,5,
0.5,-0.9,
0.5,0.2,
-0.5,0.2,
-0.5,-0.9,
0.0,-0.4,
0.5,-0.9,
0*%
%AMOUTLINE21*
4,1,5,
0.0,-0.5,
0.7,-0.5,
0.7,0.5,
0.0,0.5,
-0.5,0.0,
0.0,-0.5,
0*%
%AMOUTLINE24*
4,1,5,
0.9,0.5,
-0.2,0.5,
-0.2,-0.5,
0.9,-0.5,
0.4,0.0,
0.9,0.5,
0*%
%AMOUTLINE27*
4,1,5,
0.0,0.5,
-0.7,0.5,
-0.7,-0.5,
0.0,-0.5,
0.5,0.0,
0.0,0.5,
0*%
%AMOUTLINE30*
4,1,5,
-0.9,-0.5,
0.2,-0.5,
0.2,0.5,
-0.9,0.5,
-0.4,0.0,
-0.9,-0.5,
0*%
G04 #@! TA.AperFunction,Conductor*
%ADD10C,0.25*%
%ADD13C,0.3*%
G04 #@! TA.AperFunction,CopperBalancing*
%ADD14C,0.33*%
G04 #@! TA.AperFunction,Conductor*
%ADD15C,0.5*%
%ADD16C,0.4*%
%ADD18C,0.6*%
%ADD19C,0.75*%
G04 #@! TA.AperFunction,ViaPad*
%ADD20C,0.7*%
G04 #@! TA.AperFunction,CopperBalancing*
%ADD21C,0.635*%
%ADD24R,1.5X1.3*%
%ADD25R,1.3X1.5*%
%ADD26R,1.6X1.8*%
%ADD27R,1.8X1.6*%
%ADD28R,1.6X2.7*%
%ADD30R,1.8X1.4*%
G04 #@! TA.AperFunction,ComponentPad*
%ADD31R,1.5X1.5*%
%ADD32C,1.5*%
%ADD39C,2.5*%
%ADD40R,1.68X0.8*%
%ADD41R,2.0X1.6*%
%ADD42R,2.0X2.0*%
%ADD43R,1.2X1.6*%
%ADD49R,0.95X2.15*%
%ADD50R,3.25X2.15*%
G04 #@! TA.AperFunction,ComponentPad*
%ADD51C,1.2192*%
G04 #@! TA.AperFunction,ViaPad*
%ADD54C,1.016*%
%ADD56C,1.0*%
%ADD130OUTLINE15*%
%ADD133OUTLINE18*%
%ADD136OUTLINE21*%
%ADD139OUTLINE24*%
%ADD142OUTLINE27*%
%ADD145OUTLINE30*%
%FSLAX35Y35*%
G04*
G71*
G90*
G75*
G01*
G04 Bottom*
%LPD*%
X3360000Y3110000D2*
D14*
Y3080000D1*
X3330000Y3050000D1*
X4670000Y1950000D2*
D10*
Y1850000D1*
D15*
Y1900000D1*
X4230000D1*
X3920000D1*
X4230000Y2020000D2*
D10*
Y1900000D1*
X3360000Y3350000D2*
D14*
X3390000D1*
Y3240000D1*
Y3480000D2*
Y3520000D1*
X3350000Y3560000D1*
Y3590000D1*
X3360000D1*
X3035000Y4708000D2*
D15*
X3030000D1*
Y4560000D1*
X3080000Y4510000D1*
X3150000D1*
X3920000D1*
X5321000D1*
X5827613D1*
X6160000D1*
X6347500Y4697500D1*
X6337000Y4708000D1*
X5827613Y4510000D2*
Y4708000D1*
X5829000D1*
X5321000D2*
Y4510000D1*
X3150000Y4440000D2*
D10*
Y4510000D1*
X2790000Y4320000D2*
D14*
X2890000D1*
X3080000Y4510000D1*
X2020000Y4320000D2*
X2270000D1*
X2530000D1*
X2790000D1*
X3470000Y2500000D2*
X3480000D1*
X3490000Y2510000D1*
X3600000Y2370000D2*
X3590000D1*
X3480000Y2480000D1*
Y2500000D1*
X4410000Y2370000D2*
X4420000D1*
X4470000Y2420000D1*
Y2510000D1*
X3920000Y4510000D2*
Y4102883D1*
Y3550000D1*
D10*
X3910000Y3560000D1*
D14*
X3360000D1*
Y3590000D1*
X3910000Y3560000D2*
D10*
Y3540000D1*
X3880000Y3510000D1*
D14*
X3840000Y3470000D1*
X3650000D1*
X3530000Y3350000D1*
X3360000D1*
X2810000Y3560000D2*
D10*
X2800000D1*
Y4310000D1*
X2790000Y4320000D1*
X4350000Y3740000D2*
D14*
X4110000D1*
X3920000Y3550000D1*
Y2840000D1*
X3720000Y2630000D2*
Y2620000D1*
X3650000Y2550000D1*
Y2370000D1*
X3600000D1*
X4180000Y2620000D2*
D10*
X4185000Y2625000D1*
D14*
X4410000Y2400000D1*
D10*
Y2370000D1*
X3927117Y4110000D2*
X3920000Y4102883D1*
X4510000Y3710000D2*
D14*
X4380000D1*
X4350000Y3740000D1*
X4670000Y1950000D2*
X4680000Y1960000D1*
D15*
Y2720000D1*
Y2940000D1*
X4510000Y3110000D1*
X4310000Y3310000D2*
X4230000Y3390000D1*
X4080000D1*
X3920000Y3550000D1*
D14*
X3480000Y3110000D1*
X3360000D1*
X3920000Y3550000D2*
D15*
D3*
X3040000Y4040000D2*
D10*
X3060000Y4020000D1*
D14*
X3200000Y3880000D1*
X3590000D1*
X3920000Y3550000D1*
Y3470000D1*
Y3550000D2*
D10*
D3*
X4510000Y3710000D2*
D14*
X4680000D1*
X5290000Y3100000D1*
X5590000D1*
Y3090000D1*
X6280000D1*
X6290000Y3080000D1*
Y3050000D1*
X5430000Y3630433D2*
D10*
X5740000D1*
X4680000Y2720000D2*
D15*
X4710000Y2690000D1*
X4840000D1*
X2528000Y1500000D2*
Y1618000D1*
X2570000Y1660000D1*
X3290000D1*
X4680000D1*
X5576000D1*
X6530000D1*
X6590000Y1600000D1*
Y1502000D1*
X6592000Y1500000D1*
X5576000D2*
Y1660000D1*
X3290000Y1500000D2*
Y1660000D1*
X4670000Y1850000D2*
D16*
X4680000D1*
Y1660000D1*
X6590000Y1600000D2*
D15*
X6605000Y1585000D1*
D10*
X6840000Y1820000D1*
X6860000D1*
X1970000Y3170000D2*
D13*
Y3050000D1*
D10*
Y2940000D1*
X1780000Y3170000D2*
Y3050000D1*
Y2940000D1*
X2528000Y1246000D2*
D15*
Y1100000D1*
X3290000D1*
X5576000D1*
X6600000D1*
Y1238000D1*
X6592000Y1246000D1*
X3290000D2*
Y1100000D1*
X5576000Y1246000D2*
Y1100000D1*
X2020000Y1246000D2*
Y1100000D1*
X2528000D1*
X3035000Y4962000D2*
Y5075000D1*
X3060000Y5100000D1*
X5321000D1*
X5829000D1*
X6350000D1*
Y4975000D1*
X6337000Y4962000D1*
X5829000D2*
Y5100000D1*
X5321000Y4962000D2*
Y5100000D1*
X3140000Y2390000D2*
Y2440000D1*
X3320000Y2620000D1*
Y2640000D1*
X3360000Y2680000D1*
X7354000Y1246000D2*
X7350000D1*
Y1100000D1*
X6600000D1*
X2020000D2*
X1130000D1*
D10*
X1100000Y1130000D1*
Y1640000D1*
X1700000Y2240000D1*
Y2390000D1*
X3070000Y2150000D2*
D15*
Y2320000D1*
X3140000Y2390000D1*
X7000000Y2580000D2*
Y2330000D1*
X3170000Y3110000D2*
D14*
X3040000D1*
D15*
Y2970000D1*
X3170000D1*
X3374353D1*
X3520000D1*
Y2870000D1*
X3500000Y2850000D1*
D14*
X3360000D1*
X3170000Y3110000D2*
D10*
Y2970000D1*
X3374353D2*
Y2864353D1*
X3360000Y2850000D1*
X4350000Y3930000D2*
X4140000D1*
X4060000Y4010000D1*
Y4370000D1*
X4110000Y4420000D1*
D15*
X5260000D1*
D10*
X5508313D1*
X5566313Y4362000D1*
X5470000Y2460000D2*
X5350000D1*
X5340000Y2470000D1*
Y2630000D1*
D18*
X5470000D1*
X5566313D1*
X6310000D1*
D10*
X6380000Y2700000D1*
X6564313D1*
X6566313Y2702000D1*
X5566313Y2792000D2*
Y2630000D1*
X5470000Y2460000D2*
Y2630000D1*
X6337000Y4962000D2*
Y5057000D1*
X6410000Y5130000D1*
X7420000D1*
X7500000Y5050000D1*
Y4160000D1*
X7400000Y4060000D1*
X7210000D1*
X7200000Y4070000D1*
X3330000Y2490000D2*
D14*
Y2390000D1*
D16*
Y2170000D1*
X3350000Y2150000D1*
X3620000Y1900000D2*
X3350000D1*
Y2150000D2*
Y1900000D1*
X5440000Y3960000D2*
D10*
X5430433D1*
X5430000Y3960433D1*
X7380000Y4280000D2*
X7320000D1*
Y4330000D1*
X1970000Y3360000D2*
X2272600D1*
X2330000Y3302600D1*
X1511000Y4708000D2*
Y4519000D1*
X1520000Y4510000D1*
X2781000Y4708000D2*
Y4519000D1*
X2790000Y4510000D1*
X4090000Y3580000D2*
X4100000D1*
X4130000Y3550000D1*
X4640000D1*
X5250000Y2940000D1*
X5790000D1*
X1770000Y4510000D2*
Y4703000D1*
X1765000Y4708000D1*
X1970000Y2750000D2*
X2260000D1*
X2330000Y2820000D1*
X2850000Y3040000D2*
Y3030000D1*
X2780000Y2960000D1*
Y2660000D1*
X2680000Y2560000D1*
X2210000Y2210000D2*
X1840000D1*
X1258000Y1628000D1*
Y1500000D1*
X2210000Y2210000D2*
Y2290000D1*
X2110000Y2390000D1*
X1890000D1*
X2810000Y3370000D2*
Y3080000D1*
X2850000Y3040000D1*
X2860000Y2930000D2*
X2870000D1*
X2860000Y2920000D1*
Y2620000D1*
X2690000Y2450000D1*
X2410000Y2180000D2*
X2360000Y2130000D1*
X1890000D1*
X1390000Y1630000D1*
Y1378000D1*
X1258000Y1246000D1*
X2380000Y2060000D2*
X1950000D1*
X1512000Y1622000D1*
Y1500000D1*
X2280000Y1990000D2*
X2000000D1*
X1630000Y1620000D1*
Y1364000D1*
X1512000Y1246000D1*
X2190000Y1920000D2*
X2060000D1*
X1766000Y1626000D1*
Y1500000D1*
X3170000Y2850000D2*
Y2820000D1*
X3090000D1*
X3050000Y2780000D1*
Y2710000D1*
X3170000Y2850000D2*
Y2680000D1*
X3160000Y1900000D2*
D14*
Y1920000D1*
X2959260D1*
X2770000Y1860000D2*
Y2260000D1*
X3180000Y2670000D1*
X3170000Y2680000D1*
X2100000Y1850000D2*
D10*
X1890000Y1640000D1*
Y1370000D1*
X1766000Y1246000D1*
X2180000Y1780000D2*
X2020000Y1620000D1*
Y1500000D1*
X2340000Y1700000D2*
X2280000Y1640000D1*
Y1500000D1*
X2274000D1*
X2019000Y4708000D2*
Y4511000D1*
X2020000Y4510000D1*
X4790000Y1850000D2*
D19*
X4840000Y1900000D1*
X4930000D1*
X5000000Y1970000D1*
Y1930000D1*
X5010000Y1920000D1*
X5700000Y2460000D2*
D20*
Y1880000D1*
X5270000D1*
X5230000Y1920000D1*
X5010000D1*
X5360000Y4060000D2*
D10*
X5419533D1*
X5430000Y4070467D1*
X4370000Y4110000D2*
X4310000Y4170000D1*
X4220000D1*
X4140000Y4250000D1*
Y4310000D1*
X4180000Y4350000D1*
X4740000D1*
X5130000Y3960000D1*
Y3800000D1*
X5200000Y3730000D1*
X5419567D1*
X5430000Y3740433D1*
X4470000Y4150000D2*
X4460000Y4140000D1*
Y4200000D1*
X4510000Y4250000D1*
X4630000D1*
X4980000Y3900000D1*
Y3770000D1*
X5330000Y3420000D1*
X5420433D1*
X5430000Y3410433D1*
X4580000Y4180000D2*
X4920000Y3840000D1*
Y3750000D1*
X5369567Y3300433D1*
X5430000D1*
X6580000Y4697000D2*
X6591000Y4708000D1*
X5430000Y3300433D2*
X5730433D1*
X5960000Y3530000D1*
Y3940000D1*
X6280000Y4260000D1*
Y4350000D1*
X4220000Y4280000D2*
X4390000D1*
X4410000Y4300000D1*
X4690000D1*
X5050000Y3940000D1*
Y3790000D1*
X5320000Y3520000D1*
X5429533D1*
X5430000Y3520467D1*
X4170000Y3670000D2*
X4160000D1*
X4220000Y3610000D1*
X4670000D1*
X5270000Y3010000D1*
X6020000D1*
X2273000Y4708000D2*
Y4513000D1*
X2270000Y4510000D1*
X2527000Y4708000D2*
Y4513000D1*
X2530000Y4510000D1*
X3610000Y4190000D2*
Y4260000D1*
X3560000Y4310000D1*
X3500000D1*
X3490000Y4320000D1*
X3610000Y4190000D2*
X3530000D1*
X3490000Y4150000D1*
X7140000Y1820000D2*
X7250000D1*
X7330000Y1900000D1*
X5575000Y4708000D2*
Y4775000D1*
X5630000Y4830000D1*
X6670000D1*
X6710000Y4790000D1*
Y3850000D1*
X6570000Y3710000D1*
X6970000Y5050000D2*
Y3820000D1*
X6580000Y3430000D1*
X3300000Y4320000D2*
X3150000D1*
X6680000Y2030000D2*
D19*
X6954000D1*
X7000000Y2076000D1*
X7354000Y1500000D2*
D14*
Y1606000D1*
X7280000Y1680000D1*
X7060000D1*
X7000000Y1740000D1*
Y2076000D1*
X6410000Y2340000D2*
D20*
X6200000D1*
X5930000Y2460000D2*
X6080000D1*
X6200000Y2340000D1*
X6680000Y2370000D2*
D19*
Y2400000D1*
X6470000D1*
X6410000Y2340000D1*
X6680000Y2500000D2*
Y2400000D1*
X5360000Y4210000D2*
D10*
X5400000D1*
X5430000Y4180000D1*
X1620000Y2940000D2*
Y3470000D1*
X1690000Y3540000D1*
X1780000D1*
X1890000Y3650000D1*
Y3870000D2*
Y3650000D1*
X3900000Y2467000D2*
D14*
X3911000Y2478000D1*
X3900000Y2467000D2*
Y2375000D1*
X3892000Y2367000D1*
X4064000D1*
X4065000Y2368000D1*
X7353000Y4708000D2*
D10*
Y4553000D1*
X7320000Y4520000D1*
X4065000Y2178000D2*
D14*
Y2065000D1*
X4110000Y2020000D1*
X6088000Y4967000D2*
D15*
X6083000Y4962000D1*
D20*
X3390000Y3240000D3*
Y3480000D3*
X3470000Y2500000D3*
X4470000Y2510000D3*
D54*
X3920000Y2840000D3*
X3720000Y2630000D3*
X4180000Y2620000D3*
D20*
X4510000Y3710000D3*
D54*
Y3110000D3*
X4310000Y3310000D3*
D20*
X4510000Y3710000D3*
X5740000Y3630433D3*
X5590000Y3100000D3*
D54*
X1970000Y3050000D3*
D3*
D20*
X3330000Y2490000D3*
X4090000Y3580000D3*
X5790000Y2940000D3*
X2680000Y2560000D3*
X2210000Y2210000D3*
D3*
X2860000Y2930000D3*
X2690000Y2450000D3*
X2410000Y2180000D3*
X2380000Y2060000D3*
X2280000Y1990000D3*
X2190000Y1920000D3*
X3050000Y2710000D3*
X2959260Y1920000D3*
X2770000Y1860000D3*
X2100000Y1850000D3*
X2180000Y1780000D3*
X2340000Y1700000D3*
X4370000Y4110000D3*
X4470000Y4150000D3*
X4580000Y4180000D3*
X6280000Y4350000D3*
X4220000Y4280000D3*
X4170000Y3670000D3*
X6020000Y3010000D3*
D54*
X7330000Y1900000D3*
X6570000Y3710000D3*
D20*
X6970000Y5050000D3*
D54*
X6580000Y3430000D3*
D20*
X1620000Y2940000D3*
X1890000Y3650000D3*
Y3870000D3*
X3900000Y2467000D3*
D3*
X7380000Y4280000D3*
X5360000Y4210000D3*
X3610000Y4190000D3*
D54*
X7200000Y4070000D3*
D20*
X5360000Y4060000D3*
D54*
X3040000Y4040000D3*
D20*
X5440000Y3960000D3*
D54*
X6170000Y3710000D3*
X6860000Y3060000D3*
X1780000Y3050000D3*
D56*
X4120000Y3040000D3*
D20*
X3330000Y3050000D3*
X6290000D3*
X2850000Y3040000D3*
D54*
X6680000Y2500000D3*
X1210000Y2460000D3*
X2290000Y2360000D3*
X1160000Y1930000D3*
X1108147Y5045083D2*
D21*
X1135057D1*
X1108147Y4855583D2*
X1156150D1*
X7453810D2*
X7491877D1*
X1108147Y4792417D2*
X1136147D1*
X1108147Y4602917D2*
X1154690D1*
X6439267D2*
X6488727D1*
X7468667D2*
X7491877D1*
X1108147Y4539750D2*
X1371343D1*
X6326610D2*
X6623897D1*
X6796100D2*
X6883843D1*
X7056140D2*
X7171317D1*
X7468667D2*
X7491877D1*
X1108147Y4476583D2*
X1371343D1*
X6263447D2*
X6392660D1*
X6796100D2*
X6883843D1*
X7056140D2*
X7171317D1*
X7468667D2*
X7491877D1*
X1108147Y4413417D2*
X1148127D1*
X3628600D2*
X3829820D1*
X4010137D2*
X4125223D1*
X4794813D2*
X5392697D1*
X5739993D2*
X6193413D1*
X6366623D2*
X6392660D1*
X6796100D2*
X6883843D1*
X7056140D2*
X7171317D1*
X7468667D2*
X7491877D1*
X3638900Y4350250D2*
X3829820D1*
X4010137D2*
X4064793D1*
X4858980D2*
X5392697D1*
X5739993D2*
X6171357D1*
X6796100D2*
X6883843D1*
X7056140D2*
X7171317D1*
X7468667D2*
X7491877D1*
X2981920Y4287083D2*
X3026370D1*
X3691400D2*
X3829820D1*
X4010137D2*
X4053857D1*
X4922143D2*
X5272387D1*
X5739993D2*
X6187853D1*
X6366987D2*
X6392660D1*
X6796100D2*
X6883843D1*
X7056140D2*
X7171317D1*
X1108147Y4223917D2*
X1146943D1*
X2938627D2*
X3031657D1*
X3712820D2*
X3829820D1*
X4010137D2*
X4058233D1*
X4985307D2*
X5252333D1*
X5739993D2*
X6124690D1*
X6357507D2*
X6392660D1*
X6796100D2*
X6883843D1*
X7056140D2*
X7171317D1*
X7471857D2*
X7491877D1*
X1108147Y4160750D2*
X1149313D1*
X1370647D2*
X2713830D1*
X2886127D2*
X3161357D1*
X3714370D2*
X3829820D1*
X4010137D2*
X4110093D1*
X5048470D2*
X5264000D1*
X5587600D2*
X6061527D1*
X6299903D2*
X6623897D1*
X6796100D2*
X6883843D1*
X7056140D2*
X7491877D1*
X1404643Y4097583D2*
X2713830D1*
X2886127D2*
X2930577D1*
X3660230D2*
X3829820D1*
X4012327D2*
X4180187D1*
X5111637D2*
X5258530D1*
X5587600D2*
X5998363D1*
X6236740D2*
X6623897D1*
X6796100D2*
X6883843D1*
X7056140D2*
X7491877D1*
X1405553Y4034417D2*
X2713830D1*
X2886127D2*
X2915720D1*
X3628600D2*
X3829820D1*
X4010137D2*
X4201330D1*
X4498680D2*
X4606383D1*
X5174800D2*
X5254613D1*
X5587600D2*
X5935197D1*
X6173577D2*
X6623897D1*
X6796100D2*
X6883843D1*
X7056140D2*
X7491877D1*
X1108147Y3971250D2*
X1145757D1*
X1374290D2*
X1869090D1*
X1910917D2*
X2713830D1*
X2886127D2*
X2937593D1*
X3233577D2*
X3829820D1*
X4010137D2*
X4201330D1*
X4498680D2*
X4669547D1*
X5215360D2*
X5272387D1*
X5587600D2*
X5880237D1*
X6110410D2*
X6623897D1*
X6796100D2*
X6883843D1*
X7056140D2*
X7491877D1*
X1408653Y3908083D2*
X1788700D1*
X1991257D2*
X2713830D1*
X2886127D2*
X3047060D1*
X3686753D2*
X3829820D1*
X4010137D2*
X4201330D1*
X4498680D2*
X4732710D1*
X5216180D2*
X5272387D1*
X5587600D2*
X5873857D1*
X6047247D2*
X6623897D1*
X6796100D2*
X6883843D1*
X7056140D2*
X7491877D1*
X1408653Y3844917D2*
X1784507D1*
X1995540D2*
X2713830D1*
X2886127D2*
X3110223D1*
X3749917D2*
X3829820D1*
X4010137D2*
X4201330D1*
X4498680D2*
X4795877D1*
X5216180D2*
X5272387D1*
X5587600D2*
X5873857D1*
X6046153D2*
X6585707D1*
X6796010D2*
X6875733D1*
X7056140D2*
X7491877D1*
X1408653Y3781750D2*
X1803830D1*
X1976127D2*
X2713830D1*
X2886127D2*
X3563400D1*
X4729643D2*
X4833883D1*
X5587600D2*
X5873857D1*
X6046153D2*
X6469860D1*
X6760920D2*
X6812567D1*
X7046387D2*
X7491877D1*
X1408653Y3718583D2*
X1803830D1*
X1976127D2*
X2713830D1*
X2886127D2*
X3031383D1*
X3498627D2*
X3626567D1*
X4796270D2*
X4840263D1*
X5587600D2*
X5681720D1*
X5798237D2*
X5873857D1*
X6046153D2*
X6445887D1*
X6697753D2*
X6749403D1*
X6987780D2*
X7491877D1*
X1108147Y3655417D2*
X1776213D1*
X1998457D2*
X2661330D1*
X2958680D2*
X3031383D1*
X3498627D2*
X3689730D1*
X4859433D2*
X4895407D1*
X5845540D2*
X5873803D1*
X6046153D2*
X6458923D1*
X6924617D2*
X7491877D1*
X1108147Y3592250D2*
X1623090D1*
X1980777D2*
X2661330D1*
X2958680D2*
X3031383D1*
X4922600D2*
X4958570D1*
X5841257D2*
X5873857D1*
X6046153D2*
X6554717D1*
X6585290D2*
X6623077D1*
X6861453D2*
X7491877D1*
X1108147Y3529083D2*
X1559923D1*
X1888263D2*
X2661330D1*
X2958680D2*
X3031383D1*
X4985763D2*
X5021733D1*
X5587600D2*
X5719820D1*
X5760163D2*
X5839860D1*
X6046153D2*
X6509417D1*
X6798290D2*
X7491877D1*
X1108147Y3465917D2*
X1533857D1*
X2118680D2*
X2661330D1*
X2958680D2*
X3031383D1*
X4288863D2*
X4604923D1*
X5048927D2*
X5084900D1*
X5587600D2*
X5776697D1*
X6015073D2*
X6461110D1*
X6735123D2*
X7491877D1*
X1108147Y3402750D2*
X1533857D1*
X2416453D2*
X2661330D1*
X2958680D2*
X3031383D1*
X4389487D2*
X4668090D1*
X5112090D2*
X5148063D1*
X5587600D2*
X5713530D1*
X5951910D2*
X6458740D1*
X6701220D2*
X7491877D1*
X1108147Y3339583D2*
X1533857D1*
X2459110D2*
X2661330D1*
X2958680D2*
X3031383D1*
X4430683D2*
X4731253D1*
X5175253D2*
X5211227D1*
X5888743D2*
X6497660D1*
X6662300D2*
X7491877D1*
X1108147Y3276417D2*
X1533857D1*
X2118680D2*
X2198127D1*
X2461933D2*
X2661330D1*
X2958680D2*
X3031383D1*
X3771243D2*
X3829820D1*
X4010137D2*
X4190393D1*
X4429590D2*
X4794417D1*
X5238420D2*
X5272387D1*
X5825580D2*
X7491877D1*
X1108147Y3213250D2*
X1533857D1*
X2132260D2*
X2231670D1*
X2428393D2*
X2723857D1*
X2896153D2*
X3031383D1*
X3708080D2*
X3829820D1*
X4010137D2*
X4235967D1*
X4384017D2*
X4446330D1*
X4573693D2*
X4857580D1*
X5587600D2*
X7491877D1*
X1108147Y3150083D2*
X1533857D1*
X2133627D2*
X2723857D1*
X2896153D2*
X3031383D1*
X3644917D2*
X3829820D1*
X4010137D2*
X4392553D1*
X4627470D2*
X4920747D1*
X6344747D2*
X7491877D1*
X1108147Y3086917D2*
X1533857D1*
X2133627D2*
X2723857D1*
X2947287D2*
X3031383D1*
X3581753D2*
X3829820D1*
X4010137D2*
X4387817D1*
X4669943D2*
X4983910D1*
X6391780D2*
X7491877D1*
X1108147Y3023750D2*
X1533857D1*
X2133627D2*
X2724587D1*
X2957313D2*
X3031383D1*
X3498627D2*
X3829820D1*
X4010137D2*
X4422997D1*
X4733107D2*
X5047073D1*
X6395243D2*
X7491877D1*
X1108147Y2960583D2*
X1513440D1*
X2133627D2*
X2693870D1*
X2963967D2*
X3031383D1*
X3498627D2*
X3829820D1*
X4010137D2*
X4522530D1*
X4776310D2*
X5110237D1*
X6115880D2*
X6233973D1*
X6346023D2*
X7491877D1*
X1108147Y2897417D2*
X1520640D1*
X2133537D2*
X2221370D1*
X2438600D2*
X2693870D1*
X2963327D2*
X3031383D1*
X3498627D2*
X3810497D1*
X4029553D2*
X4581317D1*
X4778680D2*
X5173400D1*
X5889383D2*
X7491877D1*
X1108147Y2834250D2*
X1631383D1*
X2118680D2*
X2196213D1*
X2463850D2*
X2693870D1*
X2946100D2*
X2985173D1*
X3498627D2*
X3795733D1*
X4044317D2*
X4581317D1*
X5273600D2*
X5392697D1*
X5739993D2*
X6392660D1*
X6739957D2*
X7491877D1*
X1108147Y2771083D2*
X1631383D1*
X2454917D2*
X2693870D1*
X3498627D2*
X3817790D1*
X4022260D2*
X4581317D1*
X5273600D2*
X5392697D1*
X5739993D2*
X6392660D1*
X6739957D2*
X6972163D1*
X7027887D2*
X7491877D1*
X1108147Y2707917D2*
X1631383D1*
X2398680D2*
X2693870D1*
X3498627D2*
X3624923D1*
X3815087D2*
X4094780D1*
X4265163D2*
X4581317D1*
X5273600D2*
X5392697D1*
X5739993D2*
X6392660D1*
X6739957D2*
X6850120D1*
X7149930D2*
X7491877D1*
X1108147Y2644750D2*
X1631383D1*
X2118680D2*
X2616397D1*
X3498627D2*
X3596487D1*
X3843523D2*
X4058140D1*
X4301803D2*
X4581317D1*
X5273600D2*
X5392697D1*
X5739993D2*
X6392660D1*
X6739957D2*
X6812567D1*
X7187390D2*
X7491877D1*
X1108147Y2581583D2*
X2573650D1*
X2936257D2*
X2966760D1*
X3539917D2*
X3566057D1*
X3834043D2*
X4061970D1*
X4353303D2*
X4390550D1*
X4549447D2*
X4581317D1*
X5273600D2*
X5348857D1*
X6051167D2*
X6392660D1*
X6771767D2*
X6801357D1*
X7198600D2*
X7491877D1*
X1108147Y2518417D2*
X1561383D1*
X2028627D2*
X2580210D1*
X2877650D2*
X2903597D1*
X3765047D2*
X3805210D1*
X3994733D2*
X4113467D1*
X4778680D2*
X5348857D1*
X6172573D2*
X6556997D1*
X7188483D2*
X7491877D1*
X1108147Y2455250D2*
X1561383D1*
X2162247D2*
X2581487D1*
X2814397D2*
X2840363D1*
X4778680D2*
X5348857D1*
X7152663D2*
X7491877D1*
X1108147Y2392083D2*
X1561383D1*
X2227143D2*
X2599353D1*
X4213667D2*
X4261397D1*
X4558653D2*
X4581317D1*
X4778680D2*
X5348857D1*
X6843680D2*
X6865613D1*
X7134343D2*
X7491877D1*
X1108147Y2328917D2*
X1561383D1*
X2286023D2*
X2703530D1*
X4213667D2*
X4261397D1*
X4558653D2*
X4581317D1*
X4778680D2*
X4846370D1*
X7148653D2*
X7491877D1*
X1108147Y2265750D2*
X1561383D1*
X2302157D2*
X2347880D1*
X2472143D2*
X2680017D1*
X4213667D2*
X4261397D1*
X4558653D2*
X4581317D1*
X4778680D2*
X4846370D1*
X5393640D2*
X5591397D1*
X5808627D2*
X6036370D1*
X6843680D2*
X6866710D1*
X7133340D2*
X7491877D1*
X1108147Y2202583D2*
X1713413D1*
X2516077D2*
X2679833D1*
X2860150D2*
X2916357D1*
X4213667D2*
X4261397D1*
X4558653D2*
X4581317D1*
X4778680D2*
X4846370D1*
X5393640D2*
X5591397D1*
X5808627D2*
X6036370D1*
X6573613D2*
X6848937D1*
X7151113D2*
X7491877D1*
X1108147Y2139417D2*
X1650250D1*
X2510243D2*
X2679833D1*
X2860150D2*
X2916357D1*
X4213667D2*
X4261397D1*
X4558653D2*
X4581317D1*
X4778680D2*
X4846370D1*
X5393640D2*
X5591397D1*
X5808627D2*
X6036370D1*
X7187847D2*
X7491877D1*
X1108147Y2076250D2*
X1587087D1*
X2487363D2*
X2679833D1*
X2860150D2*
X2916357D1*
X4558653D2*
X4581317D1*
X4778680D2*
X4846370D1*
X5393640D2*
X5591397D1*
X5808627D2*
X6036370D1*
X7198600D2*
X7491877D1*
X1108147Y2013083D2*
X1523923D1*
X2477247D2*
X2679833D1*
X2860150D2*
X2910523D1*
X3753653D2*
X3786343D1*
X4323680D2*
X4577673D1*
X5393640D2*
X5463883D1*
X5936140D2*
X6036370D1*
X7188030D2*
X7289627D1*
X7370410D2*
X7491877D1*
X1108147Y1949917D2*
X1460757D1*
X2380450D2*
X2679833D1*
X3753653D2*
X3786343D1*
X5936140D2*
X6036370D1*
X7443327D2*
X7491877D1*
X1108147Y1886750D2*
X1397593D1*
X2293040D2*
X2664887D1*
X3753653D2*
X3786343D1*
X5936140D2*
X6706383D1*
X7453720D2*
X7491877D1*
X1108147Y1823583D2*
X1334430D1*
X2278913D2*
X2666437D1*
X2871910D2*
X2918727D1*
X2999787D2*
X3021437D1*
X3753653D2*
X3786343D1*
X5936140D2*
X6706383D1*
X7426373D2*
X7491877D1*
X1108147Y1760417D2*
X1271267D1*
X2428850D2*
X2666437D1*
X2813577D2*
X3021357D1*
X3753653D2*
X3786343D1*
X4053613D2*
X4586330D1*
X5936140D2*
X6661267D1*
X7309890D2*
X7491877D1*
X1108147Y1697250D2*
X1208103D1*
X2448627D2*
X2470443D1*
X7387637D2*
X7491877D1*
X1108147Y1634083D2*
X1172100D1*
X7439317D2*
X7491877D1*
X1108147Y1570917D2*
X1128317D1*
X1108147Y1381417D2*
X1173010D1*
X7438953D2*
X7491877D1*
X1108147Y1318250D2*
X1129047D1*
X1108147Y1128750D2*
X1171007D1*
X1344943D2*
X1425030D1*
X1598967D2*
X1679053D1*
X1852990D2*
X1933077D1*
X2106920D2*
X2187007D1*
X2360947D2*
X2441030D1*
X2614970D2*
X2695053D1*
X2868993D2*
X2949080D1*
X3122923D2*
X3203010D1*
X3376947D2*
X3457033D1*
X3630970D2*
X3711057D1*
X3884993D2*
X3964990D1*
X4138927D2*
X4219013D1*
X4392950D2*
X4473037D1*
X4646973D2*
X4727060D1*
X4900997D2*
X4980993D1*
X5154930D2*
X5235017D1*
X5408953D2*
X5489040D1*
X5662977D2*
X5743063D1*
X5917000D2*
X5996997D1*
X6170933D2*
X6251020D1*
X6424957D2*
X6505043D1*
X6678980D2*
X6759067D1*
X6933003D2*
X7012997D1*
X7186933D2*
X7267020D1*
X7440957D2*
X7491877D1*
X4207710Y3823817D2*
Y4062290D1*
X4279513D1*
X4272717Y4078390D1*
X4269723Y4090213D1*
X4213740Y4090457D1*
X4201373Y4092413D1*
X4189467Y4096283D1*
X4178310Y4101967D1*
X4168180Y4109327D1*
X4083580Y4193580D1*
X4075447Y4203100D1*
X4068907Y4213777D1*
X4064113Y4225343D1*
X4061193Y4237517D1*
X4060210Y4250023D1*
X4060457Y4316260D1*
X4062413Y4328627D1*
X4066283Y4340533D1*
X4071967Y4351690D1*
X4079327Y4361820D1*
X4123580Y4406420D1*
X4133120Y4414567D1*
X4131000Y4417710D1*
X4003850D1*
X4003790Y4132017D1*
X4006660Y4116260D1*
Y4103740D1*
X4003793Y4088147D1*
X4003790Y3752247D1*
X4055583Y3803713D1*
X4066220Y3811443D1*
X4077933Y3817413D1*
X4090440Y3821473D1*
X4103427Y3823533D1*
X4207800Y3823790D1*
X4492290Y4050167D2*
Y3810747D1*
X4510000Y3812290D1*
X4526003Y3811030D1*
X4541610Y3807283D1*
X4556440Y3801140D1*
X4568587Y3793783D1*
X4686573Y3793533D1*
X4699560Y3791477D1*
X4712067Y3787413D1*
X4723780Y3781443D1*
X4734417Y3773713D1*
X4854743Y3653753D1*
X5278757Y3229740D1*
X5278710Y3278363D1*
X4859327Y3698180D1*
X4851967Y3708310D1*
X4846283Y3719467D1*
X4842413Y3731373D1*
X4840457Y3743740D1*
X4840210Y3806967D1*
X4568850Y4078310D1*
X4556120Y4080537D1*
X4547360Y4083097D1*
X4536433Y4072217D1*
X4523447Y4062783D1*
X4509143Y4055497D1*
X4492310Y4050223D1*
X3251043Y3732290D2*
X3492290D1*
Y3643787D1*
X3707720Y3643790D1*
X3555323Y3796180D1*
X3193427Y3796467D1*
X3180440Y3798523D1*
X3167933Y3802587D1*
X3156220Y3808557D1*
X3145583Y3816287D1*
X3039630Y3921873D1*
X3021527Y3923363D1*
X3003507Y3927690D1*
X2986387Y3934780D1*
X2970590Y3944463D1*
X2956497Y3956497D1*
X2944463Y3970590D1*
X2934780Y3986387D1*
X2927690Y4003507D1*
X2923363Y4021527D1*
X2921910Y4040000D1*
X2923363Y4058473D1*
X2927690Y4076493D1*
X2934780Y4093613D1*
X2944463Y4109410D1*
X2956497Y4123503D1*
X2970590Y4135537D1*
X2986387Y4145220D1*
X3003507Y4152310D1*
X3021527Y4156637D1*
X3040000Y4158090D1*
X3058473Y4156637D1*
X3076493Y4152310D1*
X3093613Y4145220D1*
X3109410Y4135537D1*
X3123503Y4123503D1*
X3135537Y4109410D1*
X3145220Y4093613D1*
X3152310Y4076493D1*
X3156637Y4058473D1*
X3158073Y4040397D1*
X3167710Y4040377D1*
Y4182723D1*
X3094720Y4182917D1*
X3084290Y4184570D1*
X3074250Y4187833D1*
X3064840Y4192627D1*
X3056300Y4198833D1*
X3048833Y4206300D1*
X3042627Y4214840D1*
X3037833Y4224250D1*
X3034570Y4234290D1*
X3032917Y4244720D1*
Y4325280D1*
X3033537Y4339493D1*
X3023753Y4335257D1*
X2944417Y4256287D1*
X2933757Y4248543D1*
X2932290Y4242290D1*
Y4187710D1*
X2879700D1*
X2879790Y3692303D1*
X2952290Y3692290D1*
Y3237710D1*
X2889857D1*
X2889790Y3134207D1*
X2903447Y3127217D1*
X2916433Y3117783D1*
X2927783Y3106433D1*
X2937217Y3093447D1*
X2944503Y3079143D1*
X2949463Y3063880D1*
X2951973Y3048027D1*
Y3031973D1*
X2949463Y3016120D1*
X2944503Y3000857D1*
X2940727Y2992823D1*
X2951140Y2976440D1*
X2957283Y2961610D1*
X2961030Y2946003D1*
X2962290Y2930000D1*
X2961030Y2913997D1*
X2957283Y2898390D1*
X2951140Y2883560D1*
X2942753Y2869877D1*
X2939783Y2866107D1*
X2939543Y2613740D1*
X2937587Y2601373D1*
X2933717Y2589467D1*
X2928033Y2578310D1*
X2920673Y2568180D1*
X2791967Y2439127D1*
X2810100Y2418613D1*
X3008187Y2616683D1*
X2996553Y2622783D1*
X2983567Y2632217D1*
X2972217Y2643567D1*
X2962783Y2656553D1*
X2955497Y2670857D1*
X2950537Y2686120D1*
X2948027Y2701973D1*
Y2718027D1*
X2950537Y2733880D1*
X2955497Y2749143D1*
X2962783Y2763447D1*
X2970217Y2773893D1*
X2971193Y2792483D1*
X2974113Y2804657D1*
X2978907Y2816223D1*
X2985450Y2826900D1*
X2993597Y2836437D1*
X3033597Y2876437D1*
X3037710Y2894377D1*
Y3732290D1*
X3251043D1*
X1845120Y3492290D2*
X2112290D1*
Y3439880D1*
X2278860Y3439543D1*
X2291227Y3437587D1*
X2303133Y3433717D1*
X2308847Y3431080D1*
X2330000Y3430850D1*
X2350063Y3429270D1*
X2369630Y3424573D1*
X2388223Y3416870D1*
X2405383Y3406357D1*
X2420687Y3393287D1*
X2433757Y3377983D1*
X2444270Y3360823D1*
X2451973Y3342230D1*
X2456670Y3322663D1*
X2458250Y3302600D1*
X2456670Y3282537D1*
X2451973Y3262970D1*
X2444270Y3244377D1*
X2433757Y3227217D1*
X2420687Y3211913D1*
X2405383Y3198843D1*
X2388223Y3188330D1*
X2369630Y3180627D1*
X2350063Y3175930D1*
X2330000Y3174350D1*
X2309937Y3175930D1*
X2290370Y3180627D1*
X2271777Y3188330D1*
X2254617Y3198843D1*
X2239313Y3211913D1*
X2226243Y3227217D1*
X2215730Y3244377D1*
X2208027Y3262970D1*
X2203797Y3280183D1*
X2112273Y3280210D1*
X2112290Y3242297D1*
X2119920Y3230530D1*
X2123960Y3220780D1*
X2126423Y3210520D1*
X2127250Y3200000D1*
X2127043Y2894557D1*
X2125393Y2884133D1*
X2122130Y2874097D1*
X2117340Y2864697D1*
X2112300Y2857633D1*
X2112290Y2829880D1*
X2202147Y2830063D1*
X2205293Y2849940D1*
X2211513Y2869080D1*
X2220650Y2887010D1*
X2232477Y2903293D1*
X2246707Y2917523D1*
X2262990Y2929350D1*
X2280920Y2938487D1*
X2300060Y2944707D1*
X2319937Y2947853D1*
X2340063D1*
X2359940Y2944707D1*
X2379080Y2938487D1*
X2397010Y2929350D1*
X2413293Y2917523D1*
X2427523Y2903293D1*
X2439350Y2887010D1*
X2448487Y2869080D1*
X2454707Y2849940D1*
X2457853Y2830063D1*
Y2809937D1*
X2454707Y2790060D1*
X2448487Y2770920D1*
X2439350Y2752990D1*
X2427523Y2736707D1*
X2413293Y2722477D1*
X2397010Y2710650D1*
X2379080Y2701513D1*
X2359940Y2695293D1*
X2340063Y2692147D1*
X2319937D1*
X2315523Y2692667D1*
X2306900Y2685447D1*
X2296223Y2678907D1*
X2284657Y2674113D1*
X2272483Y2671193D1*
X2259977Y2670210D1*
X2112253D1*
X2112290Y2617710D1*
X1637710D1*
Y2839263D1*
X1620000Y2837710D1*
X1603997Y2838970D1*
X1588390Y2842717D1*
X1573560Y2848860D1*
X1559877Y2857247D1*
X1547670Y2867670D1*
X1537247Y2879877D1*
X1528860Y2893560D1*
X1522717Y2908390D1*
X1518970Y2923997D1*
X1517710Y2940000D1*
X1518970Y2956003D1*
X1522717Y2971610D1*
X1528860Y2986440D1*
X1537247Y3000123D1*
X1540217Y3003893D1*
X1540457Y3476260D1*
X1542413Y3488627D1*
X1546283Y3500533D1*
X1551967Y3511690D1*
X1559327Y3521820D1*
X1633580Y3596420D1*
X1643100Y3604553D1*
X1653777Y3611093D1*
X1665343Y3615887D1*
X1677517Y3618807D1*
X1690000Y3619790D1*
X1746967D1*
X1788353Y3661193D1*
X1790537Y3673880D1*
X1795497Y3689143D1*
X1802783Y3703447D1*
X1810217Y3713893D1*
X1810210Y3805950D1*
X1802783Y3816553D1*
X1795497Y3830857D1*
X1790537Y3846120D1*
X1788027Y3861973D1*
Y3878027D1*
X1790537Y3893880D1*
X1795497Y3909143D1*
X1802783Y3923447D1*
X1812217Y3936433D1*
X1823567Y3947783D1*
X1836553Y3957217D1*
X1850857Y3964503D1*
X1866120Y3969463D1*
X1881973Y3971973D1*
X1898027D1*
X1913880Y3969463D1*
X1929143Y3964503D1*
X1943447Y3957217D1*
X1956433Y3947783D1*
X1967783Y3936433D1*
X1977217Y3923447D1*
X1984503Y3909143D1*
X1989463Y3893880D1*
X1991973Y3878027D1*
Y3861973D1*
X1989463Y3846120D1*
X1984503Y3830857D1*
X1977217Y3816553D1*
X1969783Y3806107D1*
X1969790Y3714050D1*
X1977217Y3703447D1*
X1984503Y3689143D1*
X1989463Y3673880D1*
X1991973Y3658027D1*
Y3641973D1*
X1989463Y3626120D1*
X1984503Y3610857D1*
X1977217Y3596553D1*
X1967783Y3583567D1*
X1956433Y3572217D1*
X1943447Y3562783D1*
X1929143Y3555497D1*
X1913880Y3550537D1*
X1901233Y3548407D1*
X1845147Y3492307D1*
X3492290Y3027067D2*
Y2599840D1*
X3509143Y2594503D1*
X3525247Y2586013D1*
X3539250Y2577787D1*
X3549250Y2569250D1*
X3557787Y2559250D1*
X3564657Y2548040D1*
X3566217Y2544657D1*
X3567240Y2563107D1*
X3570310Y2575893D1*
X3575343Y2588040D1*
X3582213Y2599250D1*
X3590770Y2609267D1*
X3601910Y2630000D1*
X3603363Y2648473D1*
X3607690Y2666493D1*
X3614780Y2683613D1*
X3624463Y2699410D1*
X3636497Y2713503D1*
X3650590Y2725537D1*
X3666387Y2735220D1*
X3683507Y2742310D1*
X3701527Y2746637D1*
X3720000Y2748090D1*
X3738473Y2746637D1*
X3756493Y2742310D1*
X3773613Y2735220D1*
X3789410Y2725537D1*
X3803503Y2713503D1*
X3815537Y2699410D1*
X3825220Y2683613D1*
X3832310Y2666493D1*
X3836637Y2648473D1*
X3838090Y2630000D1*
X3836637Y2611527D1*
X3832310Y2593507D1*
X3825220Y2576387D1*
X3815537Y2560590D1*
X3803503Y2546497D1*
X3789410Y2534463D1*
X3773613Y2524780D1*
X3756493Y2517690D1*
X3738473Y2513363D1*
X3733760Y2512807D1*
X3733790Y2502330D1*
X3742290Y2502290D1*
Y2047710D1*
X3562710Y2047290D1*
X3747290D1*
Y1752710D1*
X3492710D1*
Y1812773D1*
X3482290Y1808957D1*
Y1757710D1*
X3027710D1*
Y1836187D1*
X3017903Y1836210D1*
X3005700Y1828860D1*
X2990870Y1822717D1*
X2975263Y1818970D1*
X2959260Y1817710D1*
X2943257Y1818970D1*
X2927650Y1822717D1*
X2912820Y1828860D1*
X2899137Y1837247D1*
X2886930Y1847670D1*
X2876507Y1859877D1*
X2872097Y1866477D1*
X2871973Y1851973D1*
X2869463Y1836120D1*
X2864503Y1820857D1*
X2857217Y1806553D1*
X2847783Y1793567D1*
X2836433Y1782217D1*
X2823447Y1772783D1*
X2807230Y1764790D1*
X2807250Y1752253D1*
X4592747Y1752290D1*
X4592627Y1764840D1*
X4587833Y1774250D1*
X4584570Y1784290D1*
X4582917Y1794720D1*
X4582710Y1800020D1*
X4576667Y1807710D1*
X4047253D1*
X4047290Y1752710D1*
X3792710D1*
Y2044727D1*
X3749710Y2044710D1*
Y2499290D1*
X3803030D1*
X3808860Y2513440D1*
X3817247Y2527123D1*
X3827670Y2539330D1*
X3839877Y2549753D1*
X3853560Y2558140D1*
X3868390Y2564283D1*
X3883997Y2568030D1*
X3900000Y2569290D1*
X3916003Y2568030D1*
X3931610Y2564283D1*
X3946440Y2558140D1*
X3960123Y2549753D1*
X3972330Y2539330D1*
X3982753Y2527123D1*
X3991140Y2513440D1*
X3996663Y2500287D1*
X4191137Y2500290D1*
X4170733Y2502273D1*
X4152433Y2505173D1*
X4134810Y2510900D1*
X4118297Y2519313D1*
X4103307Y2530203D1*
X4090203Y2543307D1*
X4079313Y2558297D1*
X4070900Y2574810D1*
X4065173Y2592433D1*
X4062273Y2610733D1*
Y2629267D1*
X4065173Y2647567D1*
X4070900Y2665190D1*
X4079313Y2681703D1*
X4090203Y2696693D1*
X4103307Y2709797D1*
X4118297Y2720687D1*
X4134810Y2729100D1*
X4152433Y2734827D1*
X4170733Y2737727D1*
X4189267D1*
X4207567Y2734827D1*
X4225190Y2729100D1*
X4241703Y2720687D1*
X4256693Y2709797D1*
X4269797Y2696693D1*
X4280687Y2681703D1*
X4289100Y2665190D1*
X4294827Y2647567D1*
X4297527Y2630957D1*
X4376693Y2551803D1*
X4382783Y2563447D1*
X4392217Y2576433D1*
X4403567Y2587783D1*
X4416553Y2597217D1*
X4430857Y2604503D1*
X4446120Y2609463D1*
X4461973Y2611973D1*
X4478027D1*
X4493880Y2609463D1*
X4509143Y2604503D1*
X4523447Y2597217D1*
X4536433Y2587783D1*
X4547783Y2576433D1*
X4557217Y2563447D1*
X4564503Y2549143D1*
X4569463Y2533880D1*
X4571973Y2518027D1*
Y2501973D1*
X4569463Y2486120D1*
X4564503Y2470857D1*
X4557217Y2456553D1*
X4553783Y2451413D1*
X4553533Y2413427D1*
X4552290Y2385623D1*
Y2047710D1*
X4317297D1*
X4317290Y1992253D1*
X4582643Y1992290D1*
X4583537Y2010527D1*
X4587710Y2030000D1*
Y2901837D1*
X4496863Y2992620D1*
X4482433Y2995173D1*
X4464810Y3000900D1*
X4448297Y3009313D1*
X4433307Y3020203D1*
X4420203Y3033307D1*
X4409313Y3048297D1*
X4400900Y3064810D1*
X4395173Y3082433D1*
X4392273Y3100733D1*
Y3119267D1*
X4395173Y3137567D1*
X4400900Y3155190D1*
X4409313Y3171703D1*
X4420203Y3186693D1*
X4433307Y3199797D1*
X4448297Y3210687D1*
X4464810Y3219100D1*
X4482433Y3224827D1*
X4500733Y3227727D1*
X4519267D1*
X4537567Y3224827D1*
X4555190Y3219100D1*
X4571703Y3210687D1*
X4586693Y3199797D1*
X4599797Y3186693D1*
X4610687Y3171703D1*
X4619100Y3155190D1*
X4624827Y3137567D1*
X4627253Y3123257D1*
X4750177Y2999937D1*
X4758690Y2988220D1*
X4765267Y2975317D1*
X4769740Y2961543D1*
X4772007Y2947240D1*
X4772290Y2847303D1*
X5267290Y2847290D1*
Y2532710D1*
X4772277D1*
X4772290Y2066210D1*
X4790020Y2067290D1*
X4852800D1*
X4852710Y2347290D1*
X5355207D1*
X5355210Y2634790D1*
X5399013D1*
X5399023Y2860213D1*
X5243740Y2860457D1*
X5231373Y2862413D1*
X5219467Y2866283D1*
X5208310Y2871967D1*
X5198180Y2879327D1*
X5078087Y2999073D1*
X4606893Y3470267D1*
X4275690Y3470210D1*
X4289937Y3460177D1*
X4323167Y3427353D1*
X4337567Y3424827D1*
X4355190Y3419100D1*
X4371703Y3410687D1*
X4386693Y3399797D1*
X4399797Y3386693D1*
X4410687Y3371703D1*
X4419100Y3355190D1*
X4424827Y3337567D1*
X4427727Y3319267D1*
Y3300733D1*
X4424827Y3282433D1*
X4419100Y3264810D1*
X4410687Y3248297D1*
X4399797Y3233307D1*
X4386693Y3220203D1*
X4371703Y3209313D1*
X4355190Y3200900D1*
X4337567Y3195173D1*
X4319267Y3192273D1*
X4300733D1*
X4282433Y3195173D1*
X4264810Y3200900D1*
X4248297Y3209313D1*
X4233307Y3220203D1*
X4220203Y3233307D1*
X4209313Y3248297D1*
X4200900Y3264810D1*
X4195173Y3282433D1*
X4192747Y3296743D1*
X4183333Y3297710D1*
X4072760Y3297993D1*
X4058457Y3300260D1*
X4044683Y3304737D1*
X4031780Y3311310D1*
X4020063Y3319823D1*
X4003850Y3335633D1*
X4003790Y2923190D1*
X4015537Y2909410D1*
X4025220Y2893613D1*
X4032310Y2876493D1*
X4036637Y2858473D1*
X4038090Y2840000D1*
X4036637Y2821527D1*
X4032310Y2803507D1*
X4025220Y2786387D1*
X4015537Y2770590D1*
X4003503Y2756497D1*
X3989410Y2744463D1*
X3973613Y2734780D1*
X3956493Y2727690D1*
X3938473Y2723363D1*
X3920000Y2721910D1*
X3901527Y2723363D1*
X3883507Y2727690D1*
X3866387Y2734780D1*
X3850590Y2744463D1*
X3836497Y2756497D1*
X3824463Y2770590D1*
X3814780Y2786387D1*
X3807690Y2803507D1*
X3803363Y2821527D1*
X3801910Y2840000D1*
X3803363Y2858473D1*
X3807690Y2876493D1*
X3814780Y2893613D1*
X3824463Y2909410D1*
X3836227Y2923210D1*
X3836210Y3347773D1*
X3534417Y3046287D1*
X3523780Y3038557D1*
X3512067Y3032587D1*
X3499560Y3028527D1*
X3493083Y3027240D1*
X1572377Y2532290D2*
X2022290D1*
Y2469853D1*
X2116260Y2469543D1*
X2128627Y2467587D1*
X2140533Y2463717D1*
X2151690Y2458033D1*
X2161820Y2450673D1*
X2266420Y2346420D1*
X2274550Y2336900D1*
X2281093Y2326223D1*
X2285883Y2314657D1*
X2288807Y2302483D1*
X2289790Y2289977D1*
X2292753Y2270123D1*
X2301140Y2256440D1*
X2307283Y2241610D1*
X2311030Y2226003D1*
X2312280Y2210220D1*
X2318860Y2226440D1*
X2327247Y2240123D1*
X2337670Y2252330D1*
X2349877Y2262753D1*
X2363560Y2271140D1*
X2378390Y2277283D1*
X2393997Y2281030D1*
X2410000Y2282290D1*
X2426003Y2281030D1*
X2441610Y2277283D1*
X2456440Y2271140D1*
X2470123Y2262753D1*
X2482330Y2252330D1*
X2492753Y2240123D1*
X2501140Y2226440D1*
X2507283Y2211610D1*
X2511030Y2196003D1*
X2512290Y2180000D1*
X2511030Y2163997D1*
X2507283Y2148390D1*
X2501140Y2133560D1*
X2492753Y2119877D1*
X2482330Y2107670D1*
X2473993Y2100297D1*
X2479463Y2083880D1*
X2481973Y2068027D1*
Y2051973D1*
X2479463Y2036120D1*
X2474503Y2020857D1*
X2467217Y2006553D1*
X2457783Y1993567D1*
X2446433Y1982217D1*
X2433447Y1972783D1*
X2419143Y1965497D1*
X2403880Y1960537D1*
X2388027Y1958027D1*
X2377083Y1957823D1*
X2371140Y1943560D1*
X2362753Y1929877D1*
X2352330Y1917670D1*
X2340123Y1907247D1*
X2326440Y1898860D1*
X2311610Y1892717D1*
X2296003Y1888970D1*
X2287180Y1887993D1*
X2281140Y1873560D1*
X2272753Y1859877D1*
X2262330Y1847670D1*
X2259173Y1844753D1*
X2267217Y1833447D1*
X2274503Y1819143D1*
X2279463Y1803880D1*
X2281973Y1788027D1*
X2282120Y1784357D1*
X2293560Y1791140D1*
X2308390Y1797283D1*
X2323997Y1801030D1*
X2340000Y1802290D1*
X2356003Y1801030D1*
X2371610Y1797283D1*
X2386440Y1791140D1*
X2400123Y1782753D1*
X2412330Y1772330D1*
X2422753Y1760123D1*
X2431140Y1746440D1*
X2437283Y1731610D1*
X2441030Y1716003D1*
X2442290Y1700000D1*
X2441030Y1683997D1*
X2437283Y1668390D1*
X2431140Y1653560D1*
X2422753Y1639877D1*
X2412330Y1627670D1*
X2400123Y1617247D1*
X2386440Y1608860D1*
X2372227Y1602943D1*
X2382197Y1592410D1*
X2395323Y1574347D1*
X2401220Y1564597D1*
X2412883Y1583637D1*
X2427387Y1600613D1*
X2435693Y1608280D1*
X2435993Y1625240D1*
X2438260Y1639543D1*
X2442737Y1653317D1*
X2449310Y1666220D1*
X2457823Y1677937D1*
X2504740Y1725260D1*
X2515753Y1734663D1*
X2528100Y1742230D1*
X2541480Y1747773D1*
X2555563Y1751153D1*
X2570000Y1752290D1*
X2672720D1*
X2672717Y1828390D1*
X2668970Y1843997D1*
X2667710Y1860000D1*
X2668970Y1876003D1*
X2672717Y1891610D1*
X2678860Y1906440D1*
X2686217Y1918587D1*
X2686467Y2266573D1*
X2688523Y2279560D1*
X2692587Y2292067D1*
X2698557Y2303780D1*
X2706287Y2314417D1*
X2714810Y2323310D1*
X2693170Y2347707D1*
X2673997Y2348970D1*
X2658390Y2352717D1*
X2643560Y2358860D1*
X2629877Y2367247D1*
X2617670Y2377670D1*
X2607247Y2389877D1*
X2598860Y2403560D1*
X2592717Y2418390D1*
X2588970Y2433997D1*
X2587710Y2450000D1*
X2588970Y2466003D1*
X2592717Y2481610D1*
X2599273Y2497177D1*
X2588860Y2513560D1*
X2582717Y2528390D1*
X2578970Y2543997D1*
X2577710Y2560000D1*
X2578970Y2576003D1*
X2582717Y2591610D1*
X2588860Y2606440D1*
X2597247Y2620123D1*
X2607670Y2632330D1*
X2619877Y2642753D1*
X2633560Y2651140D1*
X2648390Y2657283D1*
X2663997Y2661030D1*
X2668767Y2661593D1*
X2700210Y2693050D1*
X2700457Y2966260D1*
X2702413Y2978627D1*
X2706283Y2990533D1*
X2711967Y3001690D1*
X2719327Y3011820D1*
X2743367Y3036207D1*
X2736283Y3049467D1*
X2732413Y3061373D1*
X2730457Y3073740D1*
X2730210Y3237773D1*
X2667710Y3237710D1*
Y3692290D1*
X2720120D1*
X2720210Y4187720D1*
X1377710Y4187710D1*
Y4238040D1*
X1366830Y4224013D1*
X1353617Y4210847D1*
X1338797Y4199520D1*
X1324163Y4191017D1*
X1340427Y4181380D1*
X1355090Y4169850D1*
X1368120Y4156503D1*
X1379290Y4141563D1*
X1388410Y4125293D1*
X1395327Y4107970D1*
X1399913Y4089890D1*
X1402100Y4071363D1*
X1401983Y4054673D1*
X1399543Y4036180D1*
X1394707Y4018167D1*
X1387553Y4000937D1*
X1378207Y3984793D1*
X1366830Y3970013D1*
X1353617Y3956847D1*
X1348093Y3952283D1*
X1402290Y3952290D1*
Y3667710D1*
X1117710D1*
Y3952290D1*
X1171870D1*
X1158867Y3963907D1*
X1146643Y3977997D1*
X1136367Y3993567D1*
X1128213Y4010343D1*
X1122327Y4028043D1*
X1118807Y4046360D1*
X1117713Y4064983D1*
X1119063Y4083587D1*
X1122837Y4101853D1*
X1128967Y4119473D1*
X1137350Y4136137D1*
X1147840Y4151560D1*
X1160257Y4165480D1*
X1174390Y4177653D1*
X1189993Y4187877D1*
X1195867Y4190997D1*
X1180387Y4200067D1*
X1165643Y4211493D1*
X1152523Y4224753D1*
X1141250Y4239613D1*
X1132013Y4255820D1*
X1124980Y4273097D1*
X1120267Y4291143D1*
X1117953Y4309653D1*
X1118083Y4328307D1*
X1120650Y4346783D1*
X1125613Y4364763D1*
X1132887Y4381940D1*
X1142343Y4398020D1*
X1153820Y4412723D1*
X1167123Y4425800D1*
X1182023Y4437020D1*
X1198263Y4446200D1*
X1215563Y4453173D1*
X1233627Y4457823D1*
X1252143Y4460073D1*
X1270797Y4459880D1*
X1289263Y4457247D1*
X1307227Y4452223D1*
X1324380Y4444893D1*
X1340427Y4435380D1*
X1355090Y4423850D1*
X1368120Y4410503D1*
X1377710Y4397907D1*
Y4632643D1*
X1384220Y4643403D1*
X1372117Y4624363D1*
X1357613Y4607387D1*
X1340637Y4592883D1*
X1321597Y4581220D1*
X1300970Y4572673D1*
X1279260Y4567463D1*
X1257000Y4565710D1*
X1234740Y4567463D1*
X1213030Y4572673D1*
X1192403Y4581220D1*
X1173363Y4592883D1*
X1156387Y4607387D1*
X1141883Y4624363D1*
X1130220Y4643403D1*
X1121673Y4664030D1*
X1116463Y4685740D1*
X1114710Y4708000D1*
X1116463Y4730260D1*
X1121673Y4751970D1*
X1130220Y4772597D1*
X1141883Y4791637D1*
X1156387Y4808613D1*
X1173363Y4823117D1*
X1192837Y4834983D1*
X1173363Y4846883D1*
X1156387Y4861387D1*
X1141883Y4878363D1*
X1130220Y4897403D1*
X1121673Y4918030D1*
X1116463Y4939740D1*
X1114710Y4962000D1*
X1116463Y4984260D1*
X1121673Y5005970D1*
X1130220Y5026597D1*
X1141883Y5045637D1*
X1156387Y5062613D1*
X1173363Y5077117D1*
X1192403Y5088780D1*
X1213030Y5097327D1*
X1234740Y5102537D1*
X1257000Y5104290D1*
X1279260Y5102537D1*
X1300970Y5097327D1*
X1321597Y5088780D1*
X1340637Y5077117D1*
X1357613Y5062613D1*
X1372117Y5045637D1*
X1383983Y5026163D1*
X1395883Y5045637D1*
X1410387Y5062613D1*
X1427363Y5077117D1*
X1446403Y5088780D1*
X1467030Y5097327D1*
X1488740Y5102537D1*
X1511000Y5104290D1*
X1533260Y5102537D1*
X1554970Y5097327D1*
X1575597Y5088780D1*
X1594637Y5077117D1*
X1611613Y5062613D1*
X1626117Y5045637D1*
X1637983Y5026163D1*
X1649883Y5045637D1*
X1664387Y5062613D1*
X1681363Y5077117D1*
X1700403Y5088780D1*
X1721030Y5097327D1*
X1742740Y5102537D1*
X1765000Y5104290D1*
X1787260Y5102537D1*
X1808970Y5097327D1*
X1829597Y5088780D1*
X1848637Y5077117D1*
X1865613Y5062613D1*
X1880117Y5045637D1*
X1891983Y5026163D1*
X1903883Y5045637D1*
X1918387Y5062613D1*
X1935363Y5077117D1*
X1954403Y5088780D1*
X1975030Y5097327D1*
X1996740Y5102537D1*
X2019000Y5104290D1*
X2041260Y5102537D1*
X2062970Y5097327D1*
X2083597Y5088780D1*
X2102637Y5077117D1*
X2119613Y5062613D1*
X2134117Y5045637D1*
X2145983Y5026163D1*
X2157883Y5045637D1*
X2172387Y5062613D1*
X2189363Y5077117D1*
X2208403Y5088780D1*
X2229030Y5097327D1*
X2250740Y5102537D1*
X2273000Y5104290D1*
X2295260Y5102537D1*
X2316970Y5097327D1*
X2337597Y5088780D1*
X2356637Y5077117D1*
X2373613Y5062613D1*
X2388117Y5045637D1*
X2399983Y5026163D1*
X2411883Y5045637D1*
X2426387Y5062613D1*
X2443363Y5077117D1*
X2462403Y5088780D1*
X2483030Y5097327D1*
X2504740Y5102537D1*
X2527000Y5104290D1*
X2549260Y5102537D1*
X2570970Y5097327D1*
X2591597Y5088780D1*
X2610637Y5077117D1*
X2627613Y5062613D1*
X2642117Y5045637D1*
X2653983Y5026163D1*
X2665883Y5045637D1*
X2680387Y5062613D1*
X2697363Y5077117D1*
X2716403Y5088780D1*
X2737030Y5097327D1*
X2758740Y5102537D1*
X2781000Y5104290D1*
X2803260Y5102537D1*
X2824970Y5097327D1*
X2845597Y5088780D1*
X2864637Y5077117D1*
X2881613Y5062613D1*
X2896117Y5045637D1*
X2907983Y5026163D1*
X2917343Y5042020D1*
X2928820Y5056723D1*
X2942123Y5069800D1*
X2957023Y5081020D1*
X2973263Y5090200D1*
X2990563Y5097173D1*
X3008627Y5101823D1*
X3027143Y5104073D1*
X3045797Y5103880D1*
X3064263Y5101247D1*
X3082227Y5096223D1*
X3099380Y5088893D1*
X3115427Y5079380D1*
X3130090Y5067850D1*
X3143120Y5054503D1*
X3154290Y5039563D1*
X3161990Y5026150D1*
X3173883Y5045637D1*
X3188387Y5062613D1*
X3205363Y5077117D1*
X3224403Y5088780D1*
X3245030Y5097327D1*
X3266740Y5102537D1*
X3289000Y5104290D1*
X3311260Y5102537D1*
X3332970Y5097327D1*
X3353597Y5088780D1*
X3372637Y5077117D1*
X3389613Y5062613D1*
X3404117Y5045637D1*
X3415983Y5026163D1*
X3427883Y5045637D1*
X3442387Y5062613D1*
X3459363Y5077117D1*
X3478403Y5088780D1*
X3499030Y5097327D1*
X3520740Y5102537D1*
X3543000Y5104290D1*
X3565260Y5102537D1*
X3586970Y5097327D1*
X3607597Y5088780D1*
X3626637Y5077117D1*
X3643613Y5062613D1*
X3658117Y5045637D1*
X3669983Y5026163D1*
X3681883Y5045637D1*
X3696387Y5062613D1*
X3713363Y5077117D1*
X3732403Y5088780D1*
X3753030Y5097327D1*
X3774740Y5102537D1*
X3797000Y5104290D1*
X3819260Y5102537D1*
X3840970Y5097327D1*
X3861597Y5088780D1*
X3880637Y5077117D1*
X3897613Y5062613D1*
X3912117Y5045637D1*
X3923983Y5026163D1*
X3935883Y5045637D1*
X3950387Y5062613D1*
X3967363Y5077117D1*
X3986403Y5088780D1*
X4007030Y5097327D1*
X4028740Y5102537D1*
X4051000Y5104290D1*
X4073260Y5102537D1*
X4094970Y5097327D1*
X4115597Y5088780D1*
X4134637Y5077117D1*
X4151613Y5062613D1*
X4166117Y5045637D1*
X4177983Y5026163D1*
X4189883Y5045637D1*
X4204387Y5062613D1*
X4221363Y5077117D1*
X4240403Y5088780D1*
X4261030Y5097327D1*
X4282740Y5102537D1*
X4305000Y5104290D1*
X4327260Y5102537D1*
X4348970Y5097327D1*
X4369597Y5088780D1*
X4388637Y5077117D1*
X4405613Y5062613D1*
X4420117Y5045637D1*
X4431983Y5026163D1*
X4443883Y5045637D1*
X4458387Y5062613D1*
X4475363Y5077117D1*
X4494403Y5088780D1*
X4515030Y5097327D1*
X4536740Y5102537D1*
X4559000Y5104290D1*
X4581260Y5102537D1*
X4602970Y5097327D1*
X4623597Y5088780D1*
X4642637Y5077117D1*
X4659613Y5062613D1*
X4674117Y5045637D1*
X4685983Y5026163D1*
X4697883Y5045637D1*
X4712387Y5062613D1*
X4729363Y5077117D1*
X4748403Y5088780D1*
X4769030Y5097327D1*
X4790740Y5102537D1*
X4813000Y5104290D1*
X4835260Y5102537D1*
X4856970Y5097327D1*
X4877597Y5088780D1*
X4896637Y5077117D1*
X4913613Y5062613D1*
X4928117Y5045637D1*
X4939983Y5026163D1*
X4951883Y5045637D1*
X4966387Y5062613D1*
X4983363Y5077117D1*
X5002403Y5088780D1*
X5023030Y5097327D1*
X5044740Y5102537D1*
X5067000Y5104290D1*
X5089260Y5102537D1*
X5110970Y5097327D1*
X5131597Y5088780D1*
X5150637Y5077117D1*
X5167613Y5062613D1*
X5182117Y5045637D1*
X5193983Y5026163D1*
X5203343Y5042020D1*
X5214820Y5056723D1*
X5228123Y5069800D1*
X5243023Y5081020D1*
X5259263Y5090200D1*
X5276563Y5097173D1*
X5294627Y5101823D1*
X5313143Y5104073D1*
X5331797Y5103880D1*
X5350263Y5101247D1*
X5368227Y5096223D1*
X5385380Y5088893D1*
X5401427Y5079380D1*
X5416090Y5067850D1*
X5429120Y5054503D1*
X5440290Y5039563D1*
X5447990Y5026150D1*
X5459883Y5045637D1*
X5474387Y5062613D1*
X5491363Y5077117D1*
X5510403Y5088780D1*
X5531030Y5097327D1*
X5552740Y5102537D1*
X5575000Y5104290D1*
X5597260Y5102537D1*
X5618970Y5097327D1*
X5639597Y5088780D1*
X5658637Y5077117D1*
X5675613Y5062613D1*
X5690117Y5045637D1*
X5701983Y5026163D1*
X5711343Y5042020D1*
X5722820Y5056723D1*
X5736123Y5069800D1*
X5751023Y5081020D1*
X5767263Y5090200D1*
X5784563Y5097173D1*
X5802627Y5101823D1*
X5821143Y5104073D1*
X5839797Y5103880D1*
X5858263Y5101247D1*
X5876227Y5096223D1*
X5893380Y5088893D1*
X5909427Y5079380D1*
X5924090Y5067850D1*
X5937120Y5054503D1*
X5948290Y5039563D1*
X5955990Y5026150D1*
X5967883Y5045637D1*
X5982387Y5062613D1*
X5999363Y5077117D1*
X6018403Y5088780D1*
X6039030Y5097327D1*
X6060740Y5102537D1*
X6083000Y5104290D1*
X6105260Y5102537D1*
X6126970Y5097327D1*
X6147597Y5088780D1*
X6166637Y5077117D1*
X6183613Y5062613D1*
X6198117Y5045637D1*
X6209983Y5026163D1*
X6219343Y5042020D1*
X6230820Y5056723D1*
X6244123Y5069800D1*
X6259023Y5081020D1*
X6275263Y5090200D1*
X6292563Y5097173D1*
X6310627Y5101823D1*
X6329143Y5104073D1*
X6347797Y5103880D1*
X6366263Y5101247D1*
X6384227Y5096223D1*
X6401380Y5088893D1*
X6417427Y5079380D1*
X6432090Y5067850D1*
X6445120Y5054503D1*
X6456290Y5039563D1*
X6463990Y5026150D1*
X6475883Y5045637D1*
X6490387Y5062613D1*
X6507363Y5077117D1*
X6526403Y5088780D1*
X6547030Y5097327D1*
X6568740Y5102537D1*
X6591000Y5104290D1*
X6613260Y5102537D1*
X6634970Y5097327D1*
X6655597Y5088780D1*
X6674637Y5077117D1*
X6691613Y5062613D1*
X6706117Y5045637D1*
X6717983Y5026163D1*
X6729883Y5045637D1*
X6744387Y5062613D1*
X6761363Y5077117D1*
X6780403Y5088780D1*
X6801030Y5097327D1*
X6822740Y5102537D1*
X6845000Y5104290D1*
X6867260Y5102537D1*
X6880610Y5099683D1*
X6886007Y5108273D1*
X1101757Y5108250D1*
X1101750Y1101783D1*
X7498243Y1101750D1*
X7498250Y5108217D1*
X7054127Y5108250D1*
X7059837Y5098767D1*
X7076740Y5102537D1*
X7099000Y5104290D1*
X7121260Y5102537D1*
X7142970Y5097327D1*
X7163597Y5088780D1*
X7182637Y5077117D1*
X7199613Y5062613D1*
X7214117Y5045637D1*
X7225983Y5026163D1*
X7237883Y5045637D1*
X7252387Y5062613D1*
X7269363Y5077117D1*
X7288403Y5088780D1*
X7309030Y5097327D1*
X7330740Y5102537D1*
X7353000Y5104290D1*
X7375260Y5102537D1*
X7396970Y5097327D1*
X7417597Y5088780D1*
X7436637Y5077117D1*
X7453613Y5062613D1*
X7468117Y5045637D1*
X7479780Y5026597D1*
X7488327Y5005970D1*
X7493537Y4984260D1*
X7495290Y4962000D1*
X7493537Y4939740D1*
X7488327Y4918030D1*
X7479780Y4897403D1*
X7468117Y4878363D1*
X7453613Y4861387D1*
X7436637Y4846883D1*
X7417163Y4835017D1*
X7436637Y4823117D1*
X7453613Y4808613D1*
X7468117Y4791637D1*
X7479780Y4772597D1*
X7488327Y4751970D1*
X7493537Y4730260D1*
X7495290Y4708000D1*
X7493537Y4685740D1*
X7488327Y4664030D1*
X7479780Y4643403D1*
X7468117Y4624363D1*
X7462307Y4616997D1*
X7462290Y4340793D1*
X7471140Y4326440D1*
X7477283Y4311610D1*
X7481030Y4296003D1*
X7482290Y4280000D1*
X7481030Y4263997D1*
X7477283Y4248390D1*
X7471140Y4233560D1*
X7462307Y4219310D1*
X7462290Y4197710D1*
X7440123Y4197247D1*
X7426440Y4188860D1*
X7411610Y4182717D1*
X7396003Y4178970D1*
X7380000Y4177710D1*
X7363997Y4178970D1*
X7348390Y4182717D1*
X7333560Y4188860D1*
X7319310Y4197693D1*
X7177710Y4197710D1*
Y4589413D1*
X7163597Y4581220D1*
X7142970Y4572673D1*
X7121260Y4567463D1*
X7099000Y4565710D1*
X7076740Y4567463D1*
X7055030Y4572673D1*
X7049830Y4574593D1*
X7049543Y3813740D1*
X7047587Y3801373D1*
X7043717Y3789467D1*
X7038033Y3778310D1*
X7030673Y3768180D1*
X6910927Y3648087D1*
X6697920Y3435080D1*
X6697727Y3420733D1*
X6694827Y3402433D1*
X6689100Y3384810D1*
X6680687Y3368297D1*
X6669797Y3353307D1*
X6656693Y3340203D1*
X6641703Y3329313D1*
X6625190Y3320900D1*
X6607567Y3315173D1*
X6589267Y3312273D1*
X6570733D1*
X6552433Y3315173D1*
X6534810Y3320900D1*
X6518297Y3329313D1*
X6503307Y3340203D1*
X6490203Y3353307D1*
X6479313Y3368297D1*
X6470900Y3384810D1*
X6465173Y3402433D1*
X6462273Y3420733D1*
Y3439267D1*
X6465173Y3457567D1*
X6470900Y3475190D1*
X6479313Y3491703D1*
X6490203Y3506693D1*
X6503307Y3519797D1*
X6518297Y3530687D1*
X6534810Y3539100D1*
X6552433Y3544827D1*
X6570733Y3547727D1*
X6585030Y3547893D1*
X6890233Y3853077D1*
X6890210Y4573137D1*
X6878217Y4569640D1*
X6856163Y4566150D1*
X6833837D1*
X6811783Y4569640D1*
X6789793Y4576890D1*
X6789543Y3843740D1*
X6787587Y3831373D1*
X6783717Y3819467D1*
X6778033Y3808310D1*
X6770673Y3798180D1*
X6687983Y3715143D1*
X6687727Y3700733D1*
X6684827Y3682433D1*
X6679100Y3664810D1*
X6670687Y3648297D1*
X6659797Y3633307D1*
X6646693Y3620203D1*
X6631703Y3609313D1*
X6615190Y3600900D1*
X6597567Y3595173D1*
X6579267Y3592273D1*
X6560733D1*
X6542433Y3595173D1*
X6524810Y3600900D1*
X6508297Y3609313D1*
X6493307Y3620203D1*
X6480203Y3633307D1*
X6469313Y3648297D1*
X6460900Y3664810D1*
X6455173Y3682433D1*
X6452273Y3700733D1*
Y3719267D1*
X6455173Y3737567D1*
X6460900Y3755190D1*
X6469313Y3771703D1*
X6480203Y3786693D1*
X6493307Y3799797D1*
X6508297Y3810687D1*
X6524810Y3819100D1*
X6542433Y3824827D1*
X6560733Y3827727D1*
X6575030Y3827893D1*
X6630170Y3883010D1*
X6630210Y4214673D1*
X6399023Y4214710D1*
Y4509290D1*
X6630223D1*
X6630210Y4571237D1*
X6613260Y4567463D1*
X6591000Y4565710D1*
X6568740Y4567463D1*
X6547030Y4572673D1*
X6526403Y4581220D1*
X6507363Y4592883D1*
X6490387Y4607387D1*
X6475883Y4624363D1*
X6464017Y4643837D1*
X6452117Y4624363D1*
X6437613Y4607387D1*
X6420637Y4592883D1*
X6401597Y4581220D1*
X6380970Y4572673D1*
X6359260Y4567463D1*
X6346637Y4566090D1*
X6219937Y4439823D1*
X6208220Y4431310D1*
X6195317Y4424733D1*
X6181543Y4420260D1*
X6167240Y4417993D1*
X6043333Y4417710D1*
X5733643D1*
X5733603Y4214710D1*
X5581300D1*
X5581290Y3710183D1*
X5676003Y3710223D1*
X5686553Y3717650D1*
X5700857Y3724937D1*
X5716120Y3729897D1*
X5731973Y3732407D1*
X5748027D1*
X5763880Y3729897D1*
X5779143Y3724937D1*
X5793447Y3717650D1*
X5806433Y3708217D1*
X5817783Y3696867D1*
X5827217Y3683880D1*
X5834503Y3669577D1*
X5839463Y3654313D1*
X5841973Y3638460D1*
Y3622407D1*
X5839463Y3606553D1*
X5834503Y3591290D1*
X5827217Y3576987D1*
X5817783Y3564000D1*
X5806433Y3552650D1*
X5793447Y3543217D1*
X5779143Y3535930D1*
X5763880Y3530970D1*
X5748027Y3528460D1*
X5731973D1*
X5716120Y3530970D1*
X5700857Y3535930D1*
X5686553Y3543217D1*
X5676107Y3550650D1*
X5581317Y3550643D1*
X5581290Y3380183D1*
X5697330Y3380223D1*
X5880187Y3563030D1*
X5880457Y3946260D1*
X5882413Y3958627D1*
X5886283Y3970533D1*
X5891967Y3981690D1*
X5899327Y3991820D1*
X6019073Y4111913D1*
X6197150Y4289990D1*
X6188860Y4303560D1*
X6182717Y4318390D1*
X6178970Y4333997D1*
X6177710Y4350000D1*
X6178970Y4366003D1*
X6182717Y4381610D1*
X6188860Y4396440D1*
X6197247Y4410123D1*
X6207670Y4422330D1*
X6219877Y4432753D1*
X6233560Y4441140D1*
X6248390Y4447283D1*
X6263997Y4451030D1*
X6280000Y4452290D1*
X6296003Y4451030D1*
X6311610Y4447283D1*
X6326440Y4441140D1*
X6340123Y4432753D1*
X6352330Y4422330D1*
X6362753Y4410123D1*
X6371140Y4396440D1*
X6377283Y4381610D1*
X6381030Y4366003D1*
X6382290Y4350000D1*
X6381030Y4333997D1*
X6377283Y4318390D1*
X6371140Y4303560D1*
X6362753Y4289877D1*
X6359783Y4286107D1*
X6359543Y4253740D1*
X6357587Y4241373D1*
X6353717Y4229467D1*
X6348033Y4218310D1*
X6340673Y4208180D1*
X6220927Y4088087D1*
X6039757Y3906917D1*
X6039543Y3523740D1*
X6037587Y3511373D1*
X6033717Y3499467D1*
X6028033Y3488310D1*
X6020673Y3478180D1*
X5900927Y3358087D1*
X5782253Y3239760D1*
X5772123Y3232400D1*
X5760967Y3226717D1*
X5749060Y3222847D1*
X5736693Y3220890D1*
X5581227Y3220643D1*
X5581973Y3201973D1*
X5598027D1*
X5613880Y3199463D1*
X5629143Y3194503D1*
X5643447Y3187217D1*
X5656433Y3177783D1*
X5660740Y3173800D1*
X6286573Y3173533D1*
X6299560Y3171477D1*
X6312067Y3167413D1*
X6323780Y3161443D1*
X6334417Y3153713D1*
X6353713Y3134417D1*
X6362330Y3122330D1*
X6372753Y3110123D1*
X6381140Y3096440D1*
X6387283Y3081610D1*
X6391030Y3066003D1*
X6392290Y3050000D1*
X6391030Y3033997D1*
X6387283Y3018390D1*
X6381140Y3003560D1*
X6372753Y2989877D1*
X6362330Y2977670D1*
X6350123Y2967247D1*
X6336440Y2958860D1*
X6321610Y2952717D1*
X6306003Y2948970D1*
X6290000Y2947710D1*
X6273997Y2948970D1*
X6258390Y2952717D1*
X6243560Y2958860D1*
X6229877Y2967247D1*
X6217670Y2977670D1*
X6207247Y2989877D1*
X6198860Y3003560D1*
X6197637Y3006210D1*
X6122227D1*
X6121030Y2993997D1*
X6117283Y2978390D1*
X6111140Y2963560D1*
X6102753Y2949877D1*
X6092330Y2937670D1*
X6080123Y2927247D1*
X6066440Y2918860D1*
X6051610Y2912717D1*
X6036003Y2908970D1*
X6020000Y2907710D1*
X6003997Y2908970D1*
X5988390Y2912717D1*
X5973560Y2918860D1*
X5959877Y2927247D1*
X5956107Y2930217D1*
X5891757Y2930210D1*
X5889463Y2916120D1*
X5884503Y2900857D1*
X5877217Y2886553D1*
X5867783Y2873567D1*
X5856433Y2862217D1*
X5843447Y2852783D1*
X5829143Y2845497D1*
X5813880Y2840537D1*
X5798027Y2838027D1*
X5781973D1*
X5766120Y2840537D1*
X5750857Y2845497D1*
X5736553Y2852783D1*
X5733607Y2854753D1*
X5733603Y2634793D1*
X5814790Y2634790D1*
Y2285210D1*
X5802303D1*
X5802290Y2054857D1*
X5929790Y2054790D1*
Y1752277D1*
X6537240Y1752007D1*
X6551543Y1749740D1*
X6565317Y1745263D1*
X6578220Y1738690D1*
X6589937Y1730177D1*
X6613883Y1706633D1*
X6712733Y1805573D1*
X6712710Y1892670D1*
X6522710Y1892710D1*
Y1912670D1*
X6042710Y1912710D1*
Y2285223D1*
X5815210Y2285210D1*
Y2634790D1*
X6044790D1*
Y2562330D1*
X6088027Y2561973D1*
X6103880Y2559463D1*
X6119143Y2554503D1*
X6133447Y2547217D1*
X6146433Y2537783D1*
X6197380Y2487280D1*
X6411943Y2487290D1*
X6429900Y2496813D1*
X6445537Y2501893D1*
X6461777Y2504467D1*
X6522773Y2504790D1*
X6522710Y2507290D1*
X6562177D1*
X6565173Y2527567D1*
X6570900Y2545190D1*
X6574937Y2554710D1*
X6399023D1*
Y2849290D1*
X6733603D1*
X6733613Y2605220D1*
X6749410Y2595537D1*
X6763503Y2583503D1*
X6775537Y2569410D1*
X6785220Y2553613D1*
X6792310Y2536493D1*
X6796637Y2518473D1*
X6797803Y2507273D1*
X6821943Y2507290D1*
X6815087Y2527253D1*
X6810060Y2550027D1*
X6807830Y2573237D1*
X6808423Y2596550D1*
X6811837Y2619617D1*
X6818013Y2642103D1*
X6826870Y2663673D1*
X6838273Y2684017D1*
X6852053Y2702827D1*
X6868007Y2719833D1*
X6885903Y2734783D1*
X6905480Y2747457D1*
X6926443Y2757667D1*
X6948490Y2765263D1*
X6971297Y2770137D1*
X6994523Y2772213D1*
X7017830Y2771460D1*
X7040873Y2767897D1*
X7063317Y2761567D1*
X7084830Y2752567D1*
X7105093Y2741030D1*
X7123813Y2727123D1*
X7140713Y2711053D1*
X7155543Y2693060D1*
X7168083Y2673400D1*
X7178153Y2652367D1*
X7185603Y2630270D1*
X7190323Y2607433D1*
X7192243Y2584193D1*
X7191383Y2561363D1*
X7187720Y2538333D1*
X7181297Y2515917D1*
X7172207Y2494443D1*
X7160583Y2474227D1*
X7146600Y2455567D1*
X7130460Y2438737D1*
X7112400Y2423983D1*
X7108923Y2421540D1*
X7119290Y2407563D1*
X7128410Y2391293D1*
X7135327Y2373970D1*
X7139913Y2355890D1*
X7142100Y2337363D1*
X7141983Y2320673D1*
X7139543Y2302180D1*
X7134707Y2284167D1*
X7127553Y2266937D1*
X7118207Y2250793D1*
X7106770Y2235947D1*
X7124883Y2222220D1*
X7135970Y2211970D1*
X7146220Y2200883D1*
X7155567Y2189027D1*
X7163953Y2176470D1*
X7171330Y2163297D1*
X7177653Y2149587D1*
X7182880Y2135420D1*
X7186977Y2120890D1*
X7189923Y2106080D1*
X7191697Y2091087D1*
X7192290Y2076000D1*
X7191697Y2060913D1*
X7189923Y2045920D1*
X7186977Y2031110D1*
X7182880Y2016580D1*
X7177653Y2002413D1*
X7164963Y1977330D1*
X7240717Y1977290D1*
X7253307Y1989797D1*
X7268297Y2000687D1*
X7284810Y2009100D1*
X7302433Y2014827D1*
X7320733Y2017727D1*
X7339267D1*
X7357567Y2014827D1*
X7375190Y2009100D1*
X7391703Y2000687D1*
X7406693Y1989797D1*
X7419797Y1976693D1*
X7430687Y1961703D1*
X7439100Y1945190D1*
X7444827Y1927567D1*
X7447727Y1909267D1*
Y1890733D1*
X7444827Y1872433D1*
X7439100Y1854810D1*
X7430687Y1838297D1*
X7419797Y1823307D1*
X7406693Y1810203D1*
X7391703Y1799313D1*
X7375190Y1790900D1*
X7357567Y1785173D1*
X7339267Y1782273D1*
X7324970Y1782107D1*
X7306403Y1763563D1*
X7305893Y1759690D1*
X7318040Y1754657D1*
X7329250Y1747787D1*
X7339267Y1739230D1*
X7417713Y1660417D1*
X7425443Y1649780D1*
X7431413Y1638067D1*
X7435473Y1625560D1*
X7437637Y1615117D1*
X7454613Y1600613D1*
X7469117Y1583637D1*
X7480780Y1564597D1*
X7489327Y1543970D1*
X7494537Y1522260D1*
X7496290Y1500000D1*
X7494537Y1477740D1*
X7489327Y1456030D1*
X7480780Y1435403D1*
X7469117Y1416363D1*
X7454613Y1399387D1*
X7437637Y1384883D1*
X7418163Y1373017D1*
X7434427Y1363380D1*
X7449090Y1351850D1*
X7462120Y1338503D1*
X7473290Y1323563D1*
X7482410Y1307293D1*
X7489327Y1289970D1*
X7493913Y1271890D1*
X7496100Y1253363D1*
X7495983Y1236673D1*
X7493543Y1218180D1*
X7488707Y1200167D1*
X7481553Y1182937D1*
X7472207Y1166793D1*
X7460830Y1152013D1*
X7447617Y1138847D1*
X7432797Y1127520D1*
X7416620Y1118230D1*
X7399370Y1111137D1*
X7381337Y1106360D1*
X7362837Y1103983D1*
X7344183Y1104050D1*
X7325700Y1106553D1*
X7307700Y1111453D1*
X7290497Y1118667D1*
X7274387Y1128067D1*
X7259643Y1139493D1*
X7246523Y1152753D1*
X7235250Y1167613D1*
X7227010Y1181853D1*
X7215117Y1162363D1*
X7200613Y1145387D1*
X7183637Y1130883D1*
X7164597Y1119220D1*
X7143970Y1110673D1*
X7122260Y1105463D1*
X7100000Y1103710D1*
X7077740Y1105463D1*
X7056030Y1110673D1*
X7035403Y1119220D1*
X7016363Y1130883D1*
X6999387Y1145387D1*
X6984883Y1162363D1*
X6973017Y1181837D1*
X6961117Y1162363D1*
X6946613Y1145387D1*
X6929637Y1130883D1*
X6910597Y1119220D1*
X6889970Y1110673D1*
X6868260Y1105463D1*
X6846000Y1103710D1*
X6823740Y1105463D1*
X6802030Y1110673D1*
X6781403Y1119220D1*
X6762363Y1130883D1*
X6745387Y1145387D1*
X6730883Y1162363D1*
X6719017Y1181837D1*
X6710207Y1166793D1*
X6698830Y1152013D1*
X6685617Y1138847D1*
X6670797Y1127520D1*
X6654620Y1118230D1*
X6637370Y1111137D1*
X6619337Y1106360D1*
X6600837Y1103983D1*
X6582183Y1104050D1*
X6563700Y1106553D1*
X6545700Y1111453D1*
X6528497Y1118667D1*
X6512387Y1128067D1*
X6497643Y1139493D1*
X6484523Y1152753D1*
X6473250Y1167613D1*
X6465010Y1181853D1*
X6453117Y1162363D1*
X6438613Y1145387D1*
X6421637Y1130883D1*
X6402597Y1119220D1*
X6381970Y1110673D1*
X6360260Y1105463D1*
X6338000Y1103710D1*
X6315740Y1105463D1*
X6294030Y1110673D1*
X6273403Y1119220D1*
X6254363Y1130883D1*
X6237387Y1145387D1*
X6222883Y1162363D1*
X6211017Y1181837D1*
X6199117Y1162363D1*
X6184613Y1145387D1*
X6167637Y1130883D1*
X6148597Y1119220D1*
X6127970Y1110673D1*
X6106260Y1105463D1*
X6084000Y1103710D1*
X6061740Y1105463D1*
X6040030Y1110673D1*
X6019403Y1119220D1*
X6000363Y1130883D1*
X5983387Y1145387D1*
X5968883Y1162363D1*
X5957017Y1181837D1*
X5945117Y1162363D1*
X5930613Y1145387D1*
X5913637Y1130883D1*
X5894597Y1119220D1*
X5873970Y1110673D1*
X5852260Y1105463D1*
X5830000Y1103710D1*
X5807740Y1105463D1*
X5786030Y1110673D1*
X5765403Y1119220D1*
X5746363Y1130883D1*
X5729387Y1145387D1*
X5714883Y1162363D1*
X5703017Y1181837D1*
X5694207Y1166793D1*
X5682830Y1152013D1*
X5669617Y1138847D1*
X5654797Y1127520D1*
X5638620Y1118230D1*
X5621370Y1111137D1*
X5603337Y1106360D1*
X5584837Y1103983D1*
X5566183Y1104050D1*
X5547700Y1106553D1*
X5529700Y1111453D1*
X5512497Y1118667D1*
X5496387Y1128067D1*
X5481643Y1139493D1*
X5468523Y1152753D1*
X5457250Y1167613D1*
X5449010Y1181853D1*
X5437117Y1162363D1*
X5422613Y1145387D1*
X5405637Y1130883D1*
X5386597Y1119220D1*
X5365970Y1110673D1*
X5344260Y1105463D1*
X5322000Y1103710D1*
X5299740Y1105463D1*
X5278030Y1110673D1*
X5257403Y1119220D1*
X5238363Y1130883D1*
X5221387Y1145387D1*
X5206883Y1162363D1*
X5195017Y1181837D1*
X5183117Y1162363D1*
X5168613Y1145387D1*
X5151637Y1130883D1*
X5132597Y1119220D1*
X5111970Y1110673D1*
X5090260Y1105463D1*
X5068000Y1103710D1*
X5045740Y1105463D1*
X5024030Y1110673D1*
X5003403Y1119220D1*
X4984363Y1130883D1*
X4967387Y1145387D1*
X4952883Y1162363D1*
X4941017Y1181837D1*
X4929117Y1162363D1*
X4914613Y1145387D1*
X4897637Y1130883D1*
X4878597Y1119220D1*
X4857970Y1110673D1*
X4836260Y1105463D1*
X4814000Y1103710D1*
X4791740Y1105463D1*
X4770030Y1110673D1*
X4749403Y1119220D1*
X4730363Y1130883D1*
X4713387Y1145387D1*
X4698883Y1162363D1*
X4687017Y1181837D1*
X4675117Y1162363D1*
X4660613Y1145387D1*
X4643637Y1130883D1*
X4624597Y1119220D1*
X4603970Y1110673D1*
X4582260Y1105463D1*
X4560000Y1103710D1*
X4537740Y1105463D1*
X4516030Y1110673D1*
X4495403Y1119220D1*
X4476363Y1130883D1*
X4459387Y1145387D1*
X4444883Y1162363D1*
X4433017Y1181837D1*
X4421117Y1162363D1*
X4406613Y1145387D1*
X4389637Y1130883D1*
X4370597Y1119220D1*
X4349970Y1110673D1*
X4328260Y1105463D1*
X4306000Y1103710D1*
X4283740Y1105463D1*
X4262030Y1110673D1*
X4241403Y1119220D1*
X4222363Y1130883D1*
X4205387Y1145387D1*
X4190883Y1162363D1*
X4179017Y1181837D1*
X4167117Y1162363D1*
X4152613Y1145387D1*
X4135637Y1130883D1*
X4116597Y1119220D1*
X4095970Y1110673D1*
X4074260Y1105463D1*
X4052000Y1103710D1*
X4029740Y1105463D1*
X4008030Y1110673D1*
X3987403Y1119220D1*
X3968363Y1130883D1*
X3951387Y1145387D1*
X3936883Y1162363D1*
X3925017Y1181837D1*
X3913117Y1162363D1*
X3898613Y1145387D1*
X3881637Y1130883D1*
X3862597Y1119220D1*
X3841970Y1110673D1*
X3820260Y1105463D1*
X3798000Y1103710D1*
X3775740Y1105463D1*
X3754030Y1110673D1*
X3733403Y1119220D1*
X3714363Y1130883D1*
X3697387Y1145387D1*
X3682883Y1162363D1*
X3671017Y1181837D1*
X3659117Y1162363D1*
X3644613Y1145387D1*
X3627637Y1130883D1*
X3608597Y1119220D1*
X3587970Y1110673D1*
X3566260Y1105463D1*
X3544000Y1103710D1*
X3521740Y1105463D1*
X3500030Y1110673D1*
X3479403Y1119220D1*
X3460363Y1130883D1*
X3443387Y1145387D1*
X3428883Y1162363D1*
X3417017Y1181837D1*
X3408207Y1166793D1*
X3396830Y1152013D1*
X3383617Y1138847D1*
X3368797Y1127520D1*
X3352620Y1118230D1*
X3335370Y1111137D1*
X3317337Y1106360D1*
X3298837Y1103983D1*
X3280183Y1104050D1*
X3261700Y1106553D1*
X3243700Y1111453D1*
X3226497Y1118667D1*
X3210387Y1128067D1*
X3195643Y1139493D1*
X3182523Y1152753D1*
X3171250Y1167613D1*
X3163010Y1181853D1*
X3151117Y1162363D1*
X3136613Y1145387D1*
X3119637Y1130883D1*
X3100597Y1119220D1*
X3079970Y1110673D1*
X3058260Y1105463D1*
X3036000Y1103710D1*
X3013740Y1105463D1*
X2992030Y1110673D1*
X2971403Y1119220D1*
X2952363Y1130883D1*
X2935387Y1145387D1*
X2920883Y1162363D1*
X2909017Y1181837D1*
X2897117Y1162363D1*
X2882613Y1145387D1*
X2865637Y1130883D1*
X2846597Y1119220D1*
X2825970Y1110673D1*
X2804260Y1105463D1*
X2782000Y1103710D1*
X2759740Y1105463D1*
X2738030Y1110673D1*
X2717403Y1119220D1*
X2698363Y1130883D1*
X2681387Y1145387D1*
X2666883Y1162363D1*
X2655017Y1181837D1*
X2646207Y1166793D1*
X2634830Y1152013D1*
X2621617Y1138847D1*
X2606797Y1127520D1*
X2590620Y1118230D1*
X2573370Y1111137D1*
X2555337Y1106360D1*
X2536837Y1103983D1*
X2518183Y1104050D1*
X2499700Y1106553D1*
X2481700Y1111453D1*
X2464497Y1118667D1*
X2448387Y1128067D1*
X2433643Y1139493D1*
X2420523Y1152753D1*
X2409250Y1167613D1*
X2401010Y1181853D1*
X2389117Y1162363D1*
X2374613Y1145387D1*
X2357637Y1130883D1*
X2338597Y1119220D1*
X2317970Y1110673D1*
X2296260Y1105463D1*
X2274000Y1103710D1*
X2251740Y1105463D1*
X2230030Y1110673D1*
X2209403Y1119220D1*
X2190363Y1130883D1*
X2173387Y1145387D1*
X2158883Y1162363D1*
X2147017Y1181837D1*
X2138207Y1166793D1*
X2126830Y1152013D1*
X2113617Y1138847D1*
X2098797Y1127520D1*
X2082620Y1118230D1*
X2065370Y1111137D1*
X2047337Y1106360D1*
X2028837Y1103983D1*
X2010183Y1104050D1*
X1991700Y1106553D1*
X1973700Y1111453D1*
X1956497Y1118667D1*
X1940387Y1128067D1*
X1925643Y1139493D1*
X1912523Y1152753D1*
X1901250Y1167613D1*
X1893010Y1181853D1*
X1881117Y1162363D1*
X1866613Y1145387D1*
X1849637Y1130883D1*
X1830597Y1119220D1*
X1809970Y1110673D1*
X1788260Y1105463D1*
X1766000Y1103710D1*
X1743740Y1105463D1*
X1722030Y1110673D1*
X1701403Y1119220D1*
X1682363Y1130883D1*
X1665387Y1145387D1*
X1650883Y1162363D1*
X1639017Y1181837D1*
X1627117Y1162363D1*
X1612613Y1145387D1*
X1595637Y1130883D1*
X1576597Y1119220D1*
X1555970Y1110673D1*
X1534260Y1105463D1*
X1512000Y1103710D1*
X1489740Y1105463D1*
X1468030Y1110673D1*
X1447403Y1119220D1*
X1428363Y1130883D1*
X1411387Y1145387D1*
X1396883Y1162363D1*
X1385017Y1181837D1*
X1373117Y1162363D1*
X1358613Y1145387D1*
X1341637Y1130883D1*
X1322597Y1119220D1*
X1301970Y1110673D1*
X1280260Y1105463D1*
X1258000Y1103710D1*
X1235740Y1105463D1*
X1214030Y1110673D1*
X1193403Y1119220D1*
X1174363Y1130883D1*
X1157387Y1145387D1*
X1142883Y1162363D1*
X1131220Y1181403D1*
X1122673Y1202030D1*
X1117463Y1223740D1*
X1115710Y1246000D1*
X1117463Y1268260D1*
X1122673Y1289970D1*
X1131220Y1310597D1*
X1142883Y1329637D1*
X1157387Y1346613D1*
X1174363Y1361117D1*
X1193837Y1372983D1*
X1174363Y1384883D1*
X1157387Y1399387D1*
X1142883Y1416363D1*
X1131220Y1435403D1*
X1122673Y1456030D1*
X1117463Y1477740D1*
X1115710Y1500000D1*
X1117463Y1522260D1*
X1122673Y1543970D1*
X1131220Y1564597D1*
X1142883Y1583637D1*
X1157387Y1600613D1*
X1174363Y1615117D1*
X1178173Y1617660D1*
X1178457Y1634260D1*
X1180413Y1646627D1*
X1184283Y1658533D1*
X1189967Y1669690D1*
X1197327Y1679820D1*
X1317073Y1799913D1*
X1764807Y2247647D1*
X1567710Y2247710D1*
Y2532290D1*
X1572377D1*
X4267727Y2237710D2*
X4267710Y2423740D1*
X4207350Y2484153D1*
X4207290Y2137203D1*
X4255280Y2137083D1*
X4265730Y2135427D1*
X4267710Y2136377D1*
Y2237713D1*
X6567290Y2192723D2*
Y2167277D1*
X6830743Y2167290D1*
X6844433Y2189027D1*
X6853780Y2200883D1*
X6864030Y2211970D1*
X6875117Y2222220D1*
X6893300Y2235793D1*
X6881250Y2251613D1*
X6872013Y2267820D1*
X6864980Y2285097D1*
X6860267Y2303143D1*
X6857953Y2321653D1*
X6858083Y2340307D1*
X6860650Y2358783D1*
X6865613Y2376763D1*
X6872887Y2393940D1*
X6882343Y2410020D1*
X6891070Y2421537D1*
X6874590Y2434233D1*
X6857867Y2450487D1*
X6843233Y2468643D1*
X6837293Y2477543D1*
X6837290Y2232710D1*
X6567227D1*
X6567200Y2192710D1*
X2922710Y2015540D2*
Y2294227D1*
X2853773Y2225277D1*
X2853790Y1918660D1*
X2856970Y1920000D1*
X2858230Y1936003D1*
X2861977Y1951610D1*
X2868120Y1966440D1*
X2876507Y1980123D1*
X2886930Y1992330D1*
X2899137Y2002753D1*
X2912820Y2011140D1*
X2922737Y2015470D1*
X5387290Y2052797D2*
Y1982250D1*
X5470247Y1982290D1*
X5470210Y2054790D1*
X5597723D1*
X5597710Y2285143D1*
X5585210Y2285210D1*
X5584790Y2518123D1*
Y2285210D1*
X5387277D1*
X5387273Y2052710D1*
X5278710Y4122020D2*
Y4147907D1*
X5268860Y4163560D1*
X5262717Y4178390D1*
X5258970Y4193997D1*
X5257710Y4210000D1*
X5258970Y4226003D1*
X5262717Y4241610D1*
X5268860Y4256440D1*
X5278703Y4271973D1*
X5278710Y4287290D1*
X5293567Y4287783D1*
X5306553Y4297217D1*
X5320857Y4304503D1*
X5336120Y4309463D1*
X5351973Y4311973D1*
X5368027D1*
X5383880Y4309463D1*
X5398997Y4304557D1*
X5399023Y4417727D1*
X4782237Y4417710D1*
X4791820Y4410673D1*
X4911913Y4290927D1*
X5190673Y4011820D1*
X5198033Y4001690D1*
X5203717Y3990533D1*
X5207587Y3978627D1*
X5209543Y3966260D1*
X5209790Y3833033D1*
X5233017Y3809823D1*
X5278660Y3809790D1*
X5278710Y3997973D1*
X5268860Y4013560D1*
X5262717Y4028390D1*
X5258970Y4043997D1*
X5257710Y4060000D1*
X5258970Y4076003D1*
X5262717Y4091610D1*
X5268860Y4106440D1*
X5278703Y4121973D1*
X5547657Y3193143D2*
X5315417D1*
X5324647Y3183850D1*
X5531263Y3183790D1*
X5543560Y3191140D1*
X5547920Y3193150D1*
X4317290Y2040020D2*
Y2009980D1*
X3622290Y4417720D2*
Y4360480D1*
X3670673Y4311820D1*
X3678033Y4301690D1*
X3683717Y4290533D1*
X3687587Y4278627D1*
X3689543Y4266260D1*
X3689790Y4259977D1*
X3692753Y4250123D1*
X3701140Y4236440D1*
X3707283Y4221610D1*
X3711030Y4206003D1*
X3712290Y4190000D1*
X3711030Y4173997D1*
X3707283Y4158390D1*
X3701140Y4143560D1*
X3692753Y4129877D1*
X3682330Y4117670D1*
X3670123Y4107247D1*
X3656440Y4098860D1*
X3641610Y4092717D1*
X3626003Y4088970D1*
X3622293Y4088530D1*
X3622290Y4007710D1*
X3190773D1*
X3234677Y3963820D1*
X3596573Y3963533D1*
X3609560Y3961477D1*
X3622067Y3957413D1*
X3633780Y3951443D1*
X3644417Y3943713D1*
X3764743Y3823753D1*
X3836217Y3752280D1*
X3836210Y4417793D1*
X3622227Y4417710D1*
X3167710Y4030770D2*
Y4040377D1*
X4492307Y3810693D2*
X4510000Y3812290D1*
X4526003Y3811030D1*
X4541610Y3807283D1*
X4556440Y3801140D1*
X4568587Y3793783D1*
X2289783Y2273893D2*
X2297217Y2263447D1*
X2304503Y2249143D1*
X2309463Y2233880D1*
X2311973Y2218027D1*
X2312280Y2210220D1*
X3802967Y2499287D2*
X3808860Y2513440D1*
X3817247Y2527123D1*
X3827670Y2539330D1*
X3839877Y2549753D1*
X3853560Y2558140D1*
X3868390Y2564283D1*
X3883997Y2568030D1*
X3900000Y2569290D1*
X3916003Y2568030D1*
X3931610Y2564283D1*
X3946440Y2558140D1*
X3960123Y2549753D1*
X3972330Y2539330D1*
X3982753Y2527123D1*
X3991140Y2513440D1*
X3996663Y2500287D1*
X4207800Y3930000D2*
D14*
X4492200D1*
X3170000Y3732200D2*
Y3590000D1*
X3037800D2*
X3170000D1*
X3037800Y3350000D2*
X3170000D1*
X3037800Y3110000D2*
X3170000D1*
X3360000Y2850000D2*
X3492200D1*
X5120000Y2847197D2*
Y2532800D1*
Y2690000D2*
X5267200D1*
X3360000Y2680000D2*
X3492200D1*
X1700000Y2532200D2*
Y2247800D1*
X1567800Y2390000D2*
X1700000D1*
X4410000Y2180000D2*
Y2047800D1*
X4267800Y2180000D2*
X4552200D1*
X3600000D2*
Y2047800D1*
Y2180000D2*
X3742200D1*
X6410000Y2060000D2*
Y1912800D1*
X6200000Y2060000D2*
Y1912800D1*
X6042800Y2060000D2*
X6200000D1*
X2922803Y2150000D2*
X3070000D1*
X5230000Y2347197D2*
Y2200000D1*
X5387200D1*
X5010000Y2347197D2*
Y2200000D1*
X4852803D2*
X5010000D1*
X1260000Y3810000D2*
Y3667800D1*
X1117800Y3810000D2*
X1402200D1*
X1117800Y4064000D2*
X1402200D1*
X1260000Y4460200D2*
Y4318000D1*
X1117800D2*
X1260000D1*
X7000000Y2772200D2*
Y2580000D1*
X6807800D2*
X7192200D1*
X6857800Y2330000D2*
X7142200D1*
X5278800Y3850433D2*
X5581200D1*
X6566313Y4509200D2*
Y4214800D1*
X6399113Y4362000D2*
X6566313D1*
X5566313D2*
Y4214800D1*
X5399113Y4362000D2*
X5733513D1*
X6566313Y2849200D2*
Y2554800D1*
X6399113Y2702000D2*
X6733513D1*
X5399117Y2792000D2*
X5733513D1*
X1770000Y4320000D2*
Y4187800D1*
X1520000Y4320000D2*
Y4187800D1*
X3300000Y4150000D2*
Y4007800D1*
X3167803Y4150000D2*
X3300000D1*
X3749800Y2177000D2*
X3892000D1*
X6337000Y5104200D2*
Y4962000D1*
X3035000Y5104200D2*
Y4962000D1*
X5321000Y5104200D2*
Y4962000D1*
X5829000Y5104200D2*
Y4962000D1*
X7354000Y1246000D2*
Y1103800D1*
Y1246000D2*
X7496200D1*
X6592000D2*
Y1103800D1*
X2020000Y1246000D2*
Y1103800D1*
X2528000Y1246000D2*
Y1103800D1*
X3290000Y1246000D2*
Y1103800D1*
X5576000Y1246000D2*
Y1103800D1*
X5470000Y2460000D2*
Y2285300D1*
X5355300Y2460000D2*
X5584700D1*
D24*
X4350000Y3740000D3*
Y3930000D3*
D25*
X3360000Y3590000D3*
X3170000D3*
X3360000Y3350000D3*
X3170000D3*
D24*
X1970000Y3360000D3*
Y3170000D3*
X1780000D3*
Y3360000D3*
D25*
X3360000Y3110000D3*
X3170000D3*
D24*
X1970000Y2940000D3*
Y2750000D3*
X1780000Y2940000D3*
Y2750000D3*
D25*
X3360000Y2850000D3*
X3170000D3*
D26*
X5120000Y2690000D3*
X4840000D3*
D25*
X3360000Y2680000D3*
X3170000D3*
X3330000Y2390000D3*
X3140000D3*
X1700000D3*
X1890000D3*
D24*
X4410000Y2370000D3*
Y2180000D3*
X3600000Y2370000D3*
Y2180000D3*
D27*
X6410000Y2060000D3*
Y2340000D3*
X6200000Y2060000D3*
Y2340000D3*
D28*
X3350000Y2150000D3*
X3070000D3*
D27*
X5230000Y1920000D3*
Y2200000D3*
X5010000Y1920000D3*
Y2200000D3*
D30*
X6680000Y2370000D3*
Y2030000D3*
D31*
X1260000Y3810000D3*
D32*
Y4064000D3*
Y4318000D3*
D39*
X7000000Y2580000D3*
Y2076000D3*
D32*
Y2330000D3*
X6337000Y4708000D3*
X1257000D3*
X6337000Y4962000D3*
X6591000Y4708000D3*
Y4962000D3*
X6845000Y4708000D3*
Y4962000D3*
X7099000Y4708000D3*
Y4962000D3*
X1257000D3*
X1511000Y4708000D3*
Y4962000D3*
X1765000Y4708000D3*
Y4962000D3*
X2019000Y4708000D3*
Y4962000D3*
X2273000Y4708000D3*
Y4962000D3*
X2527000Y4708000D3*
Y4962000D3*
X2781000Y4708000D3*
Y4962000D3*
X3035000Y4708000D3*
Y4962000D3*
X3289000Y4708000D3*
Y4962000D3*
X3543000Y4708000D3*
Y4962000D3*
X3797000Y4708000D3*
Y4962000D3*
X4051000Y4708000D3*
Y4962000D3*
X4305000Y4708000D3*
Y4962000D3*
X4559000Y4708000D3*
Y4962000D3*
X4813000Y4708000D3*
Y4962000D3*
X5067000Y4708000D3*
Y4962000D3*
X5321000Y4708000D3*
Y4962000D3*
X5575000Y4708000D3*
Y4962000D3*
X5829000Y4708000D3*
Y4962000D3*
X6083000Y4708000D3*
Y4962000D3*
X7353000Y4708000D3*
Y4962000D3*
X7354000Y1500000D3*
X7100000D3*
X7354000Y1246000D3*
X1258000D3*
X7100000D3*
X6846000Y1500000D3*
Y1246000D3*
X6592000Y1500000D3*
Y1246000D3*
X6338000Y1500000D3*
Y1246000D3*
X1258000Y1500000D3*
X1512000Y1246000D3*
Y1500000D3*
X1766000Y1246000D3*
Y1500000D3*
X2020000Y1246000D3*
Y1500000D3*
X2274000Y1246000D3*
Y1500000D3*
X2528000Y1246000D3*
Y1500000D3*
X2782000Y1246000D3*
Y1500000D3*
X3036000Y1246000D3*
Y1500000D3*
X3290000Y1246000D3*
Y1500000D3*
X3544000Y1246000D3*
Y1500000D3*
X3798000Y1246000D3*
Y1500000D3*
X4052000Y1246000D3*
Y1500000D3*
X4306000Y1246000D3*
Y1500000D3*
X4560000Y1246000D3*
Y1500000D3*
X4814000Y1246000D3*
Y1500000D3*
X5068000Y1246000D3*
Y1500000D3*
X5322000Y1246000D3*
Y1500000D3*
X5576000Y1246000D3*
Y1500000D3*
X5830000Y1246000D3*
Y1500000D3*
X6084000Y1246000D3*
Y1500000D3*
D40*
X5430000Y4180000D3*
Y3300433D3*
Y3410433D3*
Y3520467D3*
Y3630433D3*
Y3740433D3*
Y3850433D3*
Y3960433D3*
Y4070467D3*
D41*
X6566313Y4362000D3*
X5566313D3*
X6566313Y2702000D3*
D42*
X5566313Y2792000D3*
D130*
X3150000Y4320000D3*
D133*
Y4440000D3*
D136*
X4790000Y1950000D3*
D139*
X4670000D3*
D136*
X4790000Y1850000D3*
D139*
X4670000D3*
D142*
X4110000Y2020000D3*
D145*
X4230000D3*
D43*
X3920000Y1900000D3*
X3620000D3*
D24*
X7320000Y4520000D3*
Y4330000D3*
X2790000Y4510000D3*
Y4320000D3*
X2530000Y4510000D3*
Y4320000D3*
X2270000Y4510000D3*
Y4320000D3*
X2020000Y4510000D3*
Y4320000D3*
X1770000Y4510000D3*
Y4320000D3*
X1520000Y4510000D3*
Y4320000D3*
D25*
X3300000D3*
X3490000D3*
X3300000Y4150000D3*
X3490000D3*
D24*
X2810000Y3560000D3*
Y3370000D3*
X4065000Y2178000D3*
Y2368000D3*
X3892000Y2177000D3*
Y2367000D3*
D25*
X3350000Y1900000D3*
X3160000D3*
D26*
X7140000Y1820000D3*
X6860000D3*
D49*
X5470000Y2460000D3*
X5700000D3*
X5930000D3*
D50*
X5700000Y1880000D3*
D51*
X2330000Y2820000D3*
Y3302600D3*
M02*
